<?xml version="1.0" encoding="utf-8" ?>
<svg baseProfile="full" height="200mm" version="1.1" viewBox="0,0,200,200" width="200mm" xmlns="http://www.w3.org/2000/svg" xmlns:ev="http://www.w3.org/2001/xml-events" xmlns:xlink="http://www.w3.org/1999/xlink"><defs /><rect fill="#1a1a1a" height="200" width="200" x="0" y="0" /><text alignment-baseline="middle" fill="#e1ed5e" style="dominant-baseline: central; font-size:9.0px; font-family:Arial;" text-anchor="middle" x="100.0" y="100.0">2023</text><line stroke="#e1ed5e" stroke-width="0.3" x1="100.0" x2="100.0" y1="15.0" y2="10.0" /><path d="M 100.0 14.0 a86.0,86.0 0 0,1 42.46469731375804,11.215312516191453" fill="none" id="id49" stroke="none" /><text fill="#e1ed5e" style="font-size:6.75px; font-family:Arial;" text-anchor="middle"><textPath startOffset="22.20632615414155" xlink:href="#id49">January</textPath></text><path d="M 100.36148047927253 79.00311137660856 l 0.11436903390203282 -6.643218664638865 a27.644203075021252,27.644203075021252 0 0,0 0.47570850869413395,0.012286147302761624 l -0.22870417779103455 6.640265725193744" fill="#ff1101" stroke="none" /><line stroke="#e1ed5e" stroke-width="0.3" x1="143.23703022742887" x2="145.7803849466894" y1="26.81831364943548" y2="22.513508569990506" /><path d="M 143.74570117128098 25.957352633546492 a86.0,86.0 0 0,1 28.547481713284135,27.462654790039103" fill="none" id="id50" stroke="none" /><text fill="#e1ed5e" style="font-size:6.75px; font-family:Arial;" text-anchor="middle"><textPath startOffset="19.985693538727396" xlink:href="#id50">February</textPath></text><path d="M 111.90073688211348 82.69761687909136 l 3.137629534267656 -4.5617736810038565 a26.53665045049876,26.53665045049876 0 0,0 0.374127421816484,0.2621001678908895 l -3.2156880956677907 4.507088670349031" fill="#ff0000" stroke="none" /><path d="M 116.15771136456269 86.58626213691792 l 6.09688554837875 -5.061485669717516 a28.92405518499117,28.92405518499117 0 0,0 0.3147233440493165,0.385813606497377 l -6.183107384504475 4.9557878936120385" fill="#ff2503" stroke="none" /><path d="M 116.60985879189232 87.15038557335679 l 6.1847182192089365 -4.784582786041631 a28.81939715627112,28.81939715627112 0 0,0 0.3001664545863456,0.3949838691193179 l -6.2661606140193955 4.67741414104128" fill="#ff2403" stroke="none" /><path d="M 117.45458315368197 88.32363383020206 l 9.151808453181834 -6.122166635223342 a32.01074576371521,32.01074576371521 0 0,0 0.3024304602011023,0.46062233944752057 l -9.25583554874086 5.963726231798148" fill="#ff5407" stroke="none" /><line stroke="#e1ed5e" stroke-width="0.3" x1="172.23445277983987" x2="176.4835382374775" y1="55.19839476539836" y2="52.563006222186495" /><path d="M 173.08426987136738 54.67131705675599 a86.0,86.0 0 0,1 12.851231095245387,41.99856678651699" fill="none" id="id51" stroke="none" /><text fill="#e1ed5e" style="font-size:6.75px; font-family:Arial;" text-anchor="middle"><textPath startOffset="22.20632615414155" xlink:href="#id51">March</textPath></text><path d="M 117.84615892207809 88.93136811851018 l 7.4612514206001075 -4.62765381113444 a29.7798321485729,29.7798321485729 0 0,0 0.26643619001927926,0.4379510417125292 l -7.539803408905611 4.49853499621483" fill="#ff3204" stroke="none" /><path d="M 119.85752413597 93.16781622104841 l 48.665862605703744 -16.743986551732018 a72.46578736210898,72.46578736210898 0 0,0 0.3956725375189943,1.1830105250306293 l -48.94687243699451 15.903802923779073" fill="#3effb2" stroke="none" /><path d="M 120.45610955862082 95.25157060432595 l 33.1465362679427 -7.69422879401546 a55.02784188420855,55.02784188420855 0 0,0 0.20623809654531358,0.9245249475857916 l -33.274068751490056 7.122525676879705" fill="#7aff26" stroke="none" /><line stroke="#e1ed5e" stroke-width="0.3" x1="184.98032266829074" x2="189.97916517819016" y1="98.17113171792111" y2="98.06355123074" /><path d="M 185.9800911702706 98.14961562048488 a86.0,86.0 0 0,1 -9.607161424134198,41.387399972396054" fill="none" id="id52" stroke="none" /><text fill="#e1ed5e" style="font-size:6.75px; font-family:Arial;" text-anchor="middle"><textPath startOffset="21.466115282336823" xlink:href="#id52">April</textPath></text><path d="M 120.99513854157772 99.54816195383933 l 62.98541562473312 -1.355514138482002 a84.0,84.0 0 0,0 0.018667971529137795,1.4458549677581491 l -62.99941660337998 0.27112291266339017" fill="#4dd2ff" stroke="none" /><path d="M 120.99824983174949 100.27111621757518 l 45.37044789578593 0.585794736311729 a66.37422944510811,66.37422944510811 0 0,0 -0.02458355218833254,1.142301070978367 l -45.35364228091259 -1.3666856230802107" fill="#35ff69" stroke="none" /><path d="M 120.9764740272857 100.99374915477107 l 55.53715592422537 2.6310428381003357 a76.5994431138266,76.5994431138266 0 0,0 -0.07373115549112147,1.3165193110826576 l -55.48363841784671 -3.5866338655184165" fill="#43ffe0" stroke="none" /><path d="M 120.89721153311464 102.0752229133903 l 40.50629862694972 4.022527068459423 a61.70553957967045,61.70553957967045 0 0,0 -0.11406033481516939,1.0560570421436735 l -40.4310559906335 -4.719180432487888" fill="#31ff2f" stroke="none" /><path d="M 120.8583938346157 102.4346265915055 l 40.412225462419265 4.716982501761008 a61.68658121232758,61.68658121232758 0 0,0 -0.13218109782268928,1.0536134037890785 l -40.32504285534973 -5.411913659837482" fill="#31ff2f" stroke="none" /><line stroke="#e1ed5e" stroke-width="0.3" x1="174.80103733775053" x2="179.2010983576182" y1="140.37084112569926" y2="142.7455964860345" /><path d="M 175.68104954172406 140.8457921977663 a86.0,86.0 0 0,1 -30.038265399797805,32.042727171017184" fill="none" id="id53" stroke="none" /><text fill="#e1ed5e" style="font-size:6.75px; font-family:Arial;" text-anchor="middle"><textPath startOffset="22.206326154141568" xlink:href="#id53">May</textPath></text><line stroke="#e1ed5e" stroke-width="0.3" x1="143.8653032363475" x2="146.44561519142675" y1="172.8068346515853" y2="177.08958963109032" /><path d="M 144.38136562736335 173.6633856474863 a86.0,86.0 0 0,1 -40.68145358897372,12.25698825130547" fill="none" id="id54" stroke="none" /><text fill="#e1ed5e" style="font-size:6.75px; font-family:Arial;" text-anchor="middle"><textPath startOffset="21.466115282336833" xlink:href="#id54">June</textPath></text><line stroke="#e1ed5e" stroke-width="0.3" x1="102.19456741930631" x2="102.32365962044197" y1="184.97166512339345" y2="189.96999836594603" /><path d="M 102.22038585953345 185.97133177190398 a86.0,86.0 0 0,1 -42.740103519485714,-10.115201625700543" fill="none" id="id55" stroke="none" /><text fill="#e1ed5e" style="font-size:6.75px; font-family:Arial;" text-anchor="middle"><textPath startOffset="22.20632615414155" xlink:href="#id55">July</textPath></text><line stroke="#e1ed5e" stroke-width="0.3" x1="58.666819895761336" x2="56.23545636021788" y1="174.27360380694188" y2="178.64263932499728" /><path d="M 58.180547188652646 175.14741091055294 a86.0,86.0 0 0,1 -31.652253787137756,-30.449443065178592" fill="none" id="id56" stroke="none" /><text fill="#e1ed5e" style="font-size:6.75px; font-family:Arial;" text-anchor="middle"><textPath startOffset="22.20632615414155" xlink:href="#id56">August</textPath></text><line stroke="#e1ed5e" stroke-width="0.3" x1="26.63291911575756" x2="22.317208475507996" y1="142.92168965132927" y2="145.44649492493687" /><path d="M 25.769776987707644 143.4266507060508 a86.0,86.0 0 0,1 -11.730757126820373,-40.83630448921669" fill="none" id="id57" stroke="none" /><text fill="#e1ed5e" style="font-size:6.75px; font-family:Arial;" text-anchor="middle"><textPath startOffset="21.46611528233685" xlink:href="#id57">September</textPath></text><line stroke="#e1ed5e" stroke-width="0.3" x1="15.007084014347285" x2="10.007500721073583" y1="101.09737516637583" y2="101.16192664675087" /><path d="M 14.007167355692545 101.11028546245083 a86.0,86.0 0 0,1 10.666146001902534,-42.60595125391555" fill="none" id="id58" stroke="none" /><text fill="#e1ed5e" style="font-size:6.75px; font-family:Arial;" text-anchor="middle"><textPath startOffset="22.20632615414155" xlink:href="#id58">October</textPath></text><line stroke="#e1ed5e" stroke-width="0.3" x1="26.266209847984243" x2="21.928928074336255" y1="57.711370442889674" y2="55.22380399835377" /><path d="M 25.398753493254645 57.213857153982495 a86.0,86.0 0 0,1 29.58750427330803,-30.492523968695096" fill="none" id="id59" stroke="none" /><text fill="#e1ed5e" style="font-size:6.75px; font-family:Arial;" text-anchor="middle"><textPath startOffset="21.46611528233685" xlink:href="#id59">November</textPath></text><line stroke="#e1ed5e" stroke-width="0.3" x1="56.762969772571076" x2="54.21961505331055" y1="26.818313649435495" y2="22.513508569990535" /><path d="M 56.25429882871897 25.957352633546506 a86.0,86.0 0 0,1 42.265352541879196,-11.944610805530505" fill="none" id="id60" stroke="none" /><text fill="#e1ed5e" style="font-size:6.75px; font-family:Arial;" text-anchor="middle"><textPath startOffset="22.20632615414155" xlink:href="#id60">December</textPath></text></svg>