<?xml version="1.0" encoding="utf-8" ?>
<svg baseProfile="full" height="200mm" version="1.1" viewBox="0,0,200,200" width="200mm" xmlns="http://www.w3.org/2000/svg" xmlns:ev="http://www.w3.org/2001/xml-events" xmlns:xlink="http://www.w3.org/1999/xlink"><defs /><rect fill="#1a1a1a" height="200" width="200" x="0" y="0" /><text alignment-baseline="middle" fill="#e1ed5e" style="dominant-baseline: central; font-size:9.0px; font-family:Arial;" text-anchor="middle" x="100.0" y="100.0">2021</text><line stroke="#e1ed5e" stroke-width="0.3" x1="100.0" x2="100.0" y1="15.0" y2="10.0" /><path d="M 100.0 14.0 a86.0,86.0 0 0,1 42.46469731375804,11.215312516191453" fill="none" id="id25" stroke="none" /><text fill="#e1ed5e" style="font-size:6.75px; font-family:Arial;" text-anchor="middle"><textPath startOffset="22.20632615414155" xlink:href="#id25">January</textPath></text><line stroke="#e1ed5e" stroke-width="0.3" x1="143.23703022742887" x2="145.7803849466894" y1="26.81831364943548" y2="22.513508569990506" /><path d="M 143.74570117128098 25.957352633546492 a86.0,86.0 0 0,1 28.547481713284135,27.462654790039103" fill="none" id="id26" stroke="none" /><text fill="#e1ed5e" style="font-size:6.75px; font-family:Arial;" text-anchor="middle"><textPath startOffset="19.985693538727396" xlink:href="#id26">February</textPath></text><line stroke="#e1ed5e" stroke-width="0.3" x1="172.23445277983987" x2="176.4835382374775" y1="55.19839476539836" y2="52.563006222186495" /><path d="M 173.08426987136738 54.67131705675599 a86.0,86.0 0 0,1 12.851231095245387,41.99856678651699" fill="none" id="id27" stroke="none" /><text fill="#e1ed5e" style="font-size:6.75px; font-family:Arial;" text-anchor="middle"><textPath startOffset="22.20632615414155" xlink:href="#id27">March</textPath></text><path d="M 119.196687751892 91.48605970444005 l 19.199896477547647 -8.515363400368964 a42.00351014923196,42.00351014923196 0 0,0 0.28744260131723237,0.6634571546126453 l -19.34362978870756 8.183607101169715" fill="#ffc912" stroke="none" /><path d="M 119.34039704204932 91.81776055985345 l 20.577136615813554 -8.705460307621118 a43.34286441961777,43.34286441961777 0 0,0 0.28477977705424357,0.6896168186661443 l -20.723938079753996 8.349968918501672" fill="#ffdc14" stroke="none" /><path d="M 119.7369772167798 92.82701384747503 l 21.57125839689421 -7.83961677991465 a43.951661815247675,43.951661815247675 0 0,0 0.2522970202436781,0.7132776509110066 l -21.703008497947696 7.467141502577029" fill="#ffe515" stroke="none" /><path d="M 120.6074358757038 95.95851677861258 l 28.795490888657817 -5.647305855035234 a50.34403446936175,50.34403446936175 0 0,0 0.15945700038984228,0.8518256721878393 l -28.88843361295752 5.150802105384831" fill="#c3ff1e" stroke="none" /><path d="M 120.94382443527127 98.46500227214037 l 19.611553733064817 -1.4373540283003092 a40.66415587884615,40.66415587884615 0 0,0 0.04515543249519118,0.6985345544331142 l -19.633389756564423 1.0995604096141598" fill="#ffb610" stroke="none" /><line stroke="#e1ed5e" stroke-width="0.3" x1="184.98032266829074" x2="189.97916517819016" y1="98.17113171792111" y2="98.06355123074" /><path d="M 185.9800911702706 98.14961562048488 a86.0,86.0 0 0,1 -9.607161424134198,41.387399972396054" fill="none" id="id28" stroke="none" /><text fill="#e1ed5e" style="font-size:6.75px; font-family:Arial;" text-anchor="middle"><textPath startOffset="21.466115282336823" xlink:href="#id28">April</textPath></text><path d="M 120.95626037817324 101.35467743843564 l 28.553880323694585 1.8458110729807744 a49.613477594605854,49.613477594605854 0 0,0 -0.062426610222822136,0.8517614983176672 l -28.517877154807426 -2.337045707795212" fill="#cdff1d" stroke="none" /><path d="M 120.8583938346157 102.4346265915055 l 21.043287969289967 2.4562077439403773 a42.18614936792093,42.18614936792093 0 0,0 -0.09039585963064162,0.7205439425358703 l -20.99789060041248 -2.818069440763643" fill="#ffcc13" stroke="none" /><path d="M 120.81339534386255 102.79330883721812 l 7.844039592108109 1.0527270899404413 a28.914366143188854,28.914366143188854 0 0,0 -0.07044909442712906,0.49272080234078475 l -7.824756446664378 -1.1875933642616352" fill="#ff0000" stroke="none" /><path d="M 119.41010516605496 108.01547362559984 l 19.357078985975967 7.993576271399364 a41.942630409668965,41.942630409668965 0 0,0 -0.28131325425788095,0.6649414344737065 l -19.21661475052578 -8.325592231539234" fill="#ffc812" stroke="none" /><line stroke="#e1ed5e" stroke-width="0.3" x1="174.80103733775053" x2="179.2010983576182" y1="140.37084112569926" y2="142.7455964860345" /><path d="M 175.68104954172406 140.8457921977663 a86.0,86.0 0 0,1 -30.038265399797805,32.042727171017184" fill="none" id="id29" stroke="none" /><text fill="#e1ed5e" style="font-size:6.75px; font-family:Arial;" text-anchor="middle"><textPath startOffset="22.206326154141568" xlink:href="#id29">May</textPath></text><path d="M 116.93607887273984 112.41649034213515 l 14.189405548395536 10.402798562533498 a38.59424473370446,38.59424473370446 0 0,0 -0.3974081235274222,0.5323931249723632 l -14.008236158173021 -10.645504567015175" fill="#ff980e" stroke="none" /><path d="M 116.71984013943494 112.70617746262583 l 22.49073210170339 17.091744356730242 a49.24819915722791,49.24819915722791 0 0,0 -0.5187317103745562,0.670530661397363 l -22.193193574110765 -17.476353012240857" fill="#d2ff1c" stroke="none" /><path d="M 112.92097659922987 116.55440617244103 l 13.4100951006334 17.181066725264277 a42.79494676355084,42.79494676355084 0 0,0 -0.5846019424815749,0.44824784078920205 l -13.112364429658331 -17.40935390788085" fill="#ffd513" stroke="none" /><path d="M 111.45004920935366 117.60387380957326 l 10.091005152860046 15.514412040918138 a39.507440827149324,39.507440827149324 0 0,0 -0.5732683892660223,0.36588700928465284 l -9.822454961547093 -15.6858134790266" fill="#ffa50f" stroke="none" /><line stroke="#e1ed5e" stroke-width="0.3" x1="143.8653032363475" x2="146.44561519142675" y1="172.8068346515853" y2="177.08958963109032" /><path d="M 144.38136562736335 173.6633856474863 a86.0,86.0 0 0,1 -40.68145358897372,12.25698825130547" fill="none" id="id30" stroke="none" /><text fill="#e1ed5e" style="font-size:6.75px; font-family:Arial;" text-anchor="middle"><textPath startOffset="21.466115282336833" xlink:href="#id30">June</textPath></text><path d="M 109.2508944713604 118.85261126421891 l 6.382843189599541 13.007743390276893 a35.4893780159919,35.4893780159919 0 0,0 -0.5507399388553712,0.2643886390615458 l -6.1579905827439365 -13.115686305837999" fill="#ff6909" stroke="none" /><path d="M 108.92500713936063 119.00905698771935 l 8.305525113700858 17.689644135184867 a40.542396399720175,40.542396399720175 0 0,0 -0.6342607021710394,0.2911579798437655 l -7.999796415762399 -17.82998918536271" fill="#ffb410" stroke="none" /><path d="M 108.59647513512805 119.15986991738527 l 8.17424680489117 18.218805148906437 a40.968554576661106,40.968554576661106 0 0,0 -0.6458972099756167,0.28314235568401086 l -7.859428920257799 -18.356812057884902" fill="#ffba11" stroke="none" /><path d="M 106.57524785965236 119.94407469862006 l 9.054390676068182 27.463823090547375 a49.917876292420814,49.917876292420814 0 0,0 -0.8183647288510226,0.26201454307173655 l -8.580304602126219 -27.61561048027882" fill="#c9ff1d" stroke="none" /><path d="M 105.88484417918355 120.15858648285463 l 7.9671930345629915 27.291691151475373 a49.430838375916885,49.430838375916885 0 0,0 -0.8188308574019159,0.23140977938214424 l -7.496231009056469 -27.424789724196035" fill="#cfff1d" stroke="none" /><path d="M 105.53697534728816 120.25689768951611 l 7.640697987817729 27.953318862349708 a49.97875603198381,49.97875603198381 0 0,0 -0.8318120423605172,0.2196891206094185 l -7.158395502645715 -28.08069933226271" fill="#c8ff1d" stroke="none" /><line stroke="#e1ed5e" stroke-width="0.3" x1="102.19456741930631" x2="102.32365962044197" y1="184.97166512339345" y2="189.96999836594603" /><path d="M 102.22038585953345 185.97133177190398 a86.0,86.0 0 0,1 -42.740103519485714,-10.115201625700543" fill="none" id="id31" stroke="none" /><text fill="#e1ed5e" style="font-size:6.75px; font-family:Arial;" text-anchor="middle"><textPath startOffset="22.20632615414155" xlink:href="#id31">July</textPath></text><path d="M 90.7491055286396 118.85261126421891 l -11.800214300099983 24.047928956814424 a47.78708540771612,47.78708540771612 0 0,0 -0.7353433291777924,-0.3687164107268489 l 12.212411536960536 -23.841244705178273" fill="#e5ff1a" stroke="none" /><path d="M 90.10565033884886 118.52300852407294 l -12.821778449555948 24.00338775648932 a48.213243584657064,48.213243584657064 0 0,0 -0.7286563656947983,-0.397321548157543 l 13.233057627119386 -23.779125556572012" fill="#dfff1b" stroke="none" /><line stroke="#e1ed5e" stroke-width="0.3" x1="58.666819895761336" x2="56.23545636021788" y1="174.27360380694188" y2="178.64263932499728" /><path d="M 58.180547188652646 175.14741091055294 a86.0,86.0 0 0,1 -31.652253787137756,-30.449443065178592" fill="none" id="id32" stroke="none" /><text fill="#e1ed5e" style="font-size:6.75px; font-family:Arial;" text-anchor="middle"><textPath startOffset="22.20632615414155" xlink:href="#id32">August</textPath></text><path d="M 85.70375840098266 115.38237550388516 l -16.246560685185152 17.480866938017723 a44.86485790869254,44.86485790869254 0 0,0 -0.5611614508457754,-0.5306131777064106 l 16.545057970421745 -17.198619123565383" fill="#fff116" stroke="none" /><path d="M 84.9287848128048 114.62390073753433 l -17.564177405175464 17.042871707382954 a45.473655304322456,45.473655304322456 0 0,0 -0.5402561468228558,-0.5664564100281523 l 17.854940103377277 -16.7380081807723" fill="#fffa17" stroke="none" /><path d="M 84.19399662182784 113.82643327865904 l -7.102434867866973 6.212914135663076 a30.43635963226363,30.43635963226363 0 0,0 -0.3415502918447858,-0.39730015206471453 l 7.2083276692825375 -6.089736884436831" fill="#ff1902" stroke="none" /><path d="M 83.28015986056508 112.70617746262583 l -13.232693671907379 10.05613407195552 a37.6201689006966,37.6201689006966 0 0,0 -0.3873779842763613,-0.5189561143436323 l 13.403832922878825 -9.82686507810258" fill="#ff890c" stroke="none" /><path d="M 82.24976979558568 111.22182372390057 l -7.71878137162774 4.879869326663302 a30.131960934448678,30.131960934448678 0 0,0 -0.273390668293155,-0.44079280677243693 l 7.801636679588851 -4.746280188525601" fill="#ff1402" stroke="none" /><line stroke="#e1ed5e" stroke-width="0.3" x1="26.63291911575756" x2="22.317208475507996" y1="142.92168965132927" y2="145.44649492493687" /><path d="M 25.769776987707644 143.4266507060508 a86.0,86.0 0 0,1 -11.730757126820373,-40.83630448921669" fill="none" id="id33" stroke="none" /><text fill="#e1ed5e" style="font-size:6.75px; font-family:Arial;" text-anchor="middle"><textPath startOffset="21.46611528233685" xlink:href="#id33">September</textPath></text><path d="M 81.87401531095188 110.60418214915194 l -19.86309408945629 11.620437255340025 a44.01254155481067,44.01254155481067 0 0,0 -0.3769317972806308,-0.6572123602345333 l 20.060177882889295 -11.276805049247184" fill="#ffe615" stroke="none" /><path d="M 81.02952815118164 109.00673069616217 l -14.90393388010405 7.076034789291006 a37.498409421570614,37.498409421570614 0 0,0 -0.2718195115283638,-0.5854750456331222 l 15.02352800847224 -6.8184396763790565" fill="#ff870c" stroke="none" /><path d="M 80.73074385275274 108.34839909993369 l -21.898002855250294 9.487302775474962 a44.86485790869254,44.86485790869254 0 0,0 -0.3009129150183775,-0.7112692428653262 l 22.058066751460977 -9.108959006943477" fill="#fff116" stroke="none" /><path d="M 79.86692584326677 105.97154293290107 l -19.319308525165983 5.730177090387752 a41.15119379535008,41.15119379535008 0 0,0 -0.19558057817632413,-0.6808416503931447 l 19.415081740228413 -5.396777964490012" fill="#ffbd11" stroke="none" /><line stroke="#e1ed5e" stroke-width="0.3" x1="15.007084014347285" x2="10.007500721073583" y1="101.09737516637583" y2="101.16192664675087" /><path d="M 14.007167355692545 101.11028546245083 a86.0,86.0 0 0,1 10.666146001902534,-42.60595125391555" fill="none" id="id34" stroke="none" /><text fill="#e1ed5e" style="font-size:6.75px; font-family:Arial;" text-anchor="middle"><textPath startOffset="22.20632615414155" xlink:href="#id34">October</textPath></text><line stroke="#e1ed5e" stroke-width="0.3" x1="26.266209847984243" x2="21.928928074336255" y1="57.711370442889674" y2="55.22380399835377" /><path d="M 25.398753493254645 57.213857153982495 a86.0,86.0 0 0,1 29.58750427330803,-30.492523968695096" fill="none" id="id35" stroke="none" /><text fill="#e1ed5e" style="font-size:6.75px; font-family:Arial;" text-anchor="middle"><textPath startOffset="21.46611528233685" xlink:href="#id35">November</textPath></text><path d="M 86.65592168130627 83.78471172551755 l -13.075514109979915 -15.888937816961372 a41.57735197229102,41.57735197229102 0 0,0 0.5565358255285032,-0.4500132664383223 l 12.800074885886911 16.11165718066383" fill="#ffc312" stroke="none" /><path d="M 88.70189139769569 82.29822771554957 l -13.166953120171245 -20.62986062691659 a45.473655304322456,45.473655304322456 0 0,0 0.6634408122319426,-0.4154465757554673 l 12.809893155567059 20.85345154399499" fill="#fffa17" stroke="none" /><line stroke="#e1ed5e" stroke-width="0.3" x1="56.762969772571076" x2="54.21961505331055" y1="26.818313649435495" y2="22.513508569990535" /><path d="M 56.25429882871897 25.957352633546506 a86.0,86.0 0 0,1 42.265352541879196,-11.944610805530505" fill="none" id="id36" stroke="none" /><text fill="#e1ed5e" style="font-size:6.75px; font-family:Arial;" text-anchor="middle"><textPath startOffset="22.20632615414155" xlink:href="#id36">December</textPath></text><path d="M 91.23893434514133 80.91482961587045 l -15.992944290476508 -34.8391484269227 a59.334586605198126,59.334586605198126 0 0,0 0.9318860788464833,-0.4181101197512195 l 15.39087609316325 35.10927887719045" fill="#56ff2b" stroke="none" /><path d="M 91.56875222667455 80.76684994638697 l -14.998341978715699 -34.213839942491205 a58.35688833027869,58.35688833027869 0 0,0 0.9234734208080394,-0.39538312467881087 l 14.40718480011735 34.46694259513281" fill="#61ff29" stroke="none" /><path d="M 91.90106846888425 80.62456947434976 l -14.002307800198796 -33.49833752010324 a57.30706873795053,57.30706873795053 0 0,0 0.9134095377714044,-0.37260268480460024 l 13.42361439283901 33.73440109109142" fill="#6dff28" stroke="none" /><path d="M 93.25333710446033 80.11325718540243 l -10.232882768673534 -30.16286881727471 a52.85138215282876,52.85138215282876 0 0,0 0.8640374933950985,-0.28485957683955626 l 9.712162453036026 30.3345421183735" fill="#a3ff21" stroke="none" /><path d="M 93.94186890950719 79.89281104454417 l -14.298313538894252 -47.45669708634713 a70.56389682421909,70.56389682421909 0 0,0 1.1660172606456776,-0.34039241268104353 l 13.479306060525154 47.695787827946866" fill="#3aff95" stroke="none" /><path d="M 94.98787191387505 79.60689891045804 l -7.599409238640208 -30.920103828433046 a52.840286455014976,52.840286455014976 0 0,0 0.885141007094701,-0.20948427862035057 l 7.066044544582972 31.04633401919427" fill="#a4ff21" stroke="none" /><path d="M 98.19473922651362 79.07773832637324 l -5.415782320459142 -62.766785020880285 a84.0,84.0 0 0,0 1.4416392425506632,-0.11189895124615123 l 4.334552888546145 62.8507092343149" fill="#4dd2ff" stroke="none" /><path d="M 98.91598698831166 79.02799685794201 l -2.8667619619685256 -55.462194849762305 a76.53623485346833,76.53623485346833 0 0,0 1.3162744224635154,-0.056681545488084475 l 1.911646707115686 55.50332412177458" fill="#43ffdc" stroke="none" /><path d="M 99.27714615592234 79.0124445844662 l -0.7180880541544649 -20.84918404083424 a41.86154657790492,41.86154657790492 0 0,0 0.7203641877525618,-0.01860488168828 l 0.3590972312070241 20.858455714664878" fill="#ffc712" stroke="none" /></svg>