<?xml version="1.0" encoding="utf-8" ?>
<svg baseProfile="full" height="200mm" version="1.1" viewBox="0,0,200,200" width="200mm" xmlns="http://www.w3.org/2000/svg" xmlns:ev="http://www.w3.org/2001/xml-events" xmlns:xlink="http://www.w3.org/1999/xlink"><defs /><rect fill="#1a1a1a" height="200" width="200" x="0" y="0" /><text alignment-baseline="middle" fill="#e1ed5e" style="dominant-baseline: central; font-size:9.0px; font-family:Arial;" text-anchor="middle" x="100.0" y="100.0">2022</text><line stroke="#e1ed5e" stroke-width="0.3" x1="100.0" x2="100.0" y1="15.0" y2="10.0" /><path d="M 100.0 14.0 a86.0,86.0 0 0,1 42.46469731375804,11.215312516191453" fill="none" id="id13" stroke="none" /><text fill="#e1ed5e" style="font-size:6.75px; font-family:Arial;" text-anchor="middle"><textPath startOffset="22.20632615414155" xlink:href="#id13">January</textPath></text><path d="M 101.80526077348638 79.07773832637324 l 0.8614097612690604 -9.983400015213181 a31.020494131556994,31.020494131556994 0 0,0 0.5315950658662809,0.05048135694362238 l -1.0331299542255856 9.96709311375438" fill="#ff2303" stroke="none" /><line stroke="#e1ed5e" stroke-width="0.3" x1="143.23703022742887" x2="145.7803849466894" y1="26.81831364943548" y2="22.513508569990506" /><path d="M 143.74570117128098 25.957352633546492 a86.0,86.0 0 0,1 28.547481713284135,27.462654790039103" fill="none" id="id14" stroke="none" /><text fill="#e1ed5e" style="font-size:6.75px; font-family:Arial;" text-anchor="middle"><textPath startOffset="19.985693538727396" xlink:href="#id14">February</textPath></text><path d="M 112.77801427241765 83.33499621200491 l 12.946996551345489 -16.885389386132616 a42.277713561890806,42.277713561890806 0 0,0 0.5737034289254058,0.44778462620928083 l -13.235732535430325 16.66002637070011" fill="#ffce13" stroke="none" /><path d="M 113.06298171725822 83.55741782278167 l 12.42545095643711 -15.640112101687528 a40.97510796026336,40.97510796026336 0 0,0 0.5484744567182427,0.44349486682437556 l -12.692828811719844 15.423911137599022" fill="#ffbb11" stroke="none" /><path d="M 113.34407831869373 83.78471172551755 l 13.592807399740183 -16.51753573250023 a42.391432857124215,42.391432857124215 0 0,0 0.5594507673264574,0.46852392869314985 l -13.875115704025758 16.281110646413264" fill="#ffd013" stroke="none" /><path d="M 114.42810811169701 84.74124197986012 l 11.60681116052451 -12.275034364368341 a37.89362406242367,37.89362406242367 0 0,0 0.47009162040538255,0.4522277663768753 l -11.816386024542311 12.073423511229164" fill="#ff8e0d" stroke="none" /><line stroke="#e1ed5e" stroke-width="0.3" x1="172.23445277983987" x2="176.4835382374775" y1="55.19839476539836" y2="52.563006222186495" /><path d="M 173.08426987136738 54.67131705675599 a86.0,86.0 0 0,1 12.851231095245387,41.99856678651699" fill="none" id="id15" stroke="none" /><text fill="#e1ed5e" style="font-size:6.75px; font-family:Arial;" text-anchor="middle"><textPath startOffset="22.20632615414155" xlink:href="#id15">March</textPath></text><path d="M 118.56541770881063 90.18545643968196 l 32.40599103365342 -17.131314555025057 a57.65556155969295,57.65556155969295 0 0,0 0.45627668843224656,0.8813813320980636 l -32.69607715524578 16.570960500666647" fill="#69ff28" stroke="none" /><path d="M 119.196687751892 91.48605970444005 l 12.723262165711327 -5.642905476385973 a34.91846910952667,34.91846910952667 0 0,0 0.2389575432909694,0.5515469558741087 l -12.818510418844976 5.423059375925262" fill="#ff6108" stroke="none" /><path d="M 119.47837535516314 92.15188598940014 l 19.18403673276672 -7.729520800223215 a41.68266803788201,41.68266803788201 0 0,0 0.26241512251180416,0.6678178638068611 l -19.314245405160225 7.39815393152057" fill="#ffc512" stroke="none" /><path d="M 119.85752413597 93.16781622104841 l 32.7309751688543 -11.261425950521192 a55.61410767220829,55.61410767220829 0 0,0 0.3036601947696937,0.9079053317622618 l -32.91997265739576 10.696347515836615" fill="#81ff25" stroke="none" /><path d="M 120.28053869075195 94.5502522615342 l 20.45181187124832 -5.495771941387763 a42.1773491742635,42.1773491742635 0 0,0 0.1823741912861993,0.7027621541404305 l -20.543382394404823 5.142913361698482" fill="#ffcd13" stroke="none" /><path d="M 120.83666639777658 97.38593545837742 l 26.784050039404196 -3.36019371584902 a47.99400374752399,47.99400374752399 0 0,0 0.09578151214300767,0.8205975032575701 l -26.837921904550793 2.8986524742665973" fill="#e1ff1b" stroke="none" /><path d="M 120.96714384426684 98.82574320788733 l 21.709918769565324 -1.2158556148956392 a42.74393887632593,42.74393887632593 0 0,0 0.03481878876485294,0.7349695994012699 l -21.727631166563675 0.8419749088713696" fill="#ffd513" stroke="none" /><line stroke="#e1ed5e" stroke-width="0.3" x1="184.98032266829074" x2="189.97916517819016" y1="98.17113171792111" y2="98.06355123074" /><path d="M 185.9800911702706 98.14961562048488 a86.0,86.0 0 0,1 -9.607161424134198,41.387399972396054" fill="none" id="id16" stroke="none" /><text fill="#e1ed5e" style="font-size:6.75px; font-family:Arial;" text-anchor="middle"><textPath startOffset="21.466115282336823" xlink:href="#id16">April</textPath></text><path d="M 120.9904718944345 100.63252640178507 l 56.82492490428933 1.7123609922722656 a77.85071917351598,77.85071917351598 0 0,0 -0.051892572591865,1.3391167191331874 l -56.78703019884627 -2.6902549584194593" fill="#44ffeb" stroke="none" /><path d="M 120.81339534386255 102.79330883721812 l 62.44018603158764 8.379926511654341 a84.0,84.0 0 0,0 -0.20466379593359463,1.4314181120783627 l -62.28668818463745 -9.453490095713112" fill="#4dd2ff" stroke="none" /><path d="M 120.49622156327973 104.57218783832717 l 35.1864091530927 7.849196570571755 a57.05125900564807,57.05125900564807 0 0,0 -0.22206369638433926,0.9566445920768396 l -35.046084890777806 -8.45370981999716" fill="#70ff27" stroke="none" /><path d="M 119.9155931802556 106.66101706037122 l 14.430836437244643 4.826572165533638 a36.21659748917647,36.21659748917647 0 0,0 -0.20282875889359614,0.5895153153822869 l -14.345616847407817 -5.074260184005226" fill="#ff750a" stroke="none" /><path d="M 119.54520255179757 107.68017299344265 l 11.930364170665497 4.687966802219402 a33.81837048861556,33.81837048861556 0 0,0 -0.21756064014699578,0.5399676668266065 l -11.847900916261109 -4.892633836888822" fill="#ff5007" stroke="none" /><path d="M 119.12269723197855 108.67885076344098 l 20.149940013594957 9.145065685495075 a43.1280886870849,43.1280886870849 0 0,0 -0.312628086921773,0.6733730865292392 l -19.989537309833352 -9.490558839303144" fill="#ffda14" stroke="none" /><line stroke="#e1ed5e" stroke-width="0.3" x1="174.80103733775053" x2="179.2010983576182" y1="140.37084112569926" y2="142.7455964860345" /><path d="M 175.68104954172406 140.8457921977663 a86.0,86.0 0 0,1 -30.038265399797805,32.042727171017184" fill="none" id="id17" stroke="none" /><text fill="#e1ed5e" style="font-size:6.75px; font-family:Arial;" text-anchor="middle"><textPath startOffset="22.206326154141568" xlink:href="#id17">May</textPath></text><path d="M 117.14729908036423 112.12312394758627 l 40.81178787136278 28.853894748572813 a70.98148928772363,70.98148928772363 0 0,0 -0.7139392811829481,0.9915992186689827 l -40.30906879780423 -29.55212757269293" fill="#3bff9a" stroke="none" /><path d="M 116.0416608686014 113.55231037782055 l 8.037450227136349 6.79019591653622 a31.521756827575864,31.521756827575864 0 0,0 -0.35373038609079516,0.4114683533857146 l -7.919377331474775 -6.927541369083463" fill="#ff2b04" stroke="none" /><path d="M 115.32070863581623 114.36230785411682 l 13.22086420057973 12.393821086206035 a39.121756298081486,39.121756298081486 0 0,0 -0.4647915188057174,0.4873320492557904 l -13.005566130395048 -12.619560252044332" fill="#ffa00e" stroke="none" /><path d="M 115.07121518719521 114.62390073753431 l 5.760996272232642 5.590009603606106 a29.027283813164132,29.027283813164132 0 0,0 -0.3510357549298444,0.355597366421793 l -5.663919892247262 -5.688347464008563" fill="#ff0300" stroke="none" /><path d="M 114.81725581225074 114.88116024355365 l 14.649512123728952 14.7126931035942 a41.762262492893925,41.762262492893925 0 0,0 -0.5137753573301775,0.5028373225261314 l -14.39408681402298 -14.962680529042903" fill="#ffc712" stroke="none" /><path d="M 113.20401910651253 116.32954008644616 l 11.565975604990557 14.303755603276738 a39.39481492305664,39.39481492305664 0 0,0 -0.5309717709408507,0.42183608763048575 l -11.318046341332355 -14.50072560491235" fill="#ffa40f" stroke="none" /><path d="M 112.63410532772338 116.77436683061366 l 4.717150914913518 6.26298560836699 a28.840695216923145,28.840695216923145 0 0,0 -0.3991209282673948,0.2952601210984288 l -4.608645016227559 -6.343255678205188" fill="#ff0000" stroke="none" /><path d="M 112.34349029814194 116.9893568818739 l 15.907859738317367 21.89529053721131 a48.06406749110107,48.06406749110107 0 0,0 -0.6735210273837081,0.48053936994587565 l -15.528611383084774 -22.165874169001405" fill="#e1ff1b" stroke="none" /><line stroke="#e1ed5e" stroke-width="0.3" x1="143.8653032363475" x2="146.44561519142675" y1="172.8068346515853" y2="177.08958963109032" /><path d="M 144.38136562736335 173.6633856474863 a86.0,86.0 0 0,1 -40.68145358897372,12.25698825130547" fill="none" id="id18" stroke="none" /><text fill="#e1ed5e" style="font-size:6.75px; font-family:Arial;" text-anchor="middle"><textPath startOffset="21.466115282336833" xlink:href="#id18">June</textPath></text><line stroke="#e1ed5e" stroke-width="0.3" x1="102.19456741930631" x2="102.32365962044197" y1="184.97166512339345" y2="189.96999836594603" /><path d="M 102.22038585953345 185.97133177190398 a86.0,86.0 0 0,1 -42.740103519485714,-10.115201625700543" fill="none" id="id19" stroke="none" /><text fill="#e1ed5e" style="font-size:6.75px; font-family:Arial;" text-anchor="middle"><textPath startOffset="22.20632615414155" xlink:href="#id19">July</textPath></text><path d="M 99.09653310690486 120.98055641714683 l -0.6892518333747913 16.00599544516894 a37.02082888868673,37.02082888868673 0 0,0 -0.6364267117161193,-0.03289599147077871 l 0.9646666135043996 -15.991759646935956" fill="#ff810b" stroke="none" /><path d="M 96.93821686468263 120.77559828337769 l -1.6100181924349861 10.924709463948385 a32.042709606417034,32.042709606417034 0 0,0 -0.5449765097247149,-0.0851141228110046 l 1.797830565768218 -10.895377033790275" fill="#ff3404" stroke="none" /><path d="M 95.86986931433489 120.58985236759428 l -5.917750865630225 29.50163710180711 a51.08930652232432,51.08930652232432 0 0,0 -0.8607539465356984,-0.18037935845042188 l 6.424696273595311 -29.395401762630144" fill="#b9ff1f" stroke="none" /><path d="M 94.11515582081647 120.15858648285463 l -8.069261694871548 27.641328262224672 a49.795069237638266,49.795069237638266 0 0,0 -0.8207295053632034,-0.24727906741914027 l 8.543866174674998 -27.498333825699806" fill="#caff1d" stroke="none" /><path d="M 93.76903079525671 120.05430185196036 l -5.165853731763699 16.62624010097851 a38.410281579381845,38.410281579381845 0 0,0 -0.6297066703251339,-0.2016121903568748 l 5.451281747179773 -16.534855063961928" fill="#ff960d" stroke="none" /><line stroke="#e1ed5e" stroke-width="0.3" x1="58.666819895761336" x2="56.23545636021788" y1="174.27360380694188" y2="178.64263932499728" /><path d="M 58.180547188652646 175.14741091055294 a86.0,86.0 0 0,1 -31.652253787137756,-30.449443065178592" fill="none" id="id20" stroke="none" /><text fill="#e1ed5e" style="font-size:6.75px; font-family:Arial;" text-anchor="middle"><textPath startOffset="22.20632615414155" xlink:href="#id20">August</textPath></text><path d="M 87.36589467227662 116.77436683061367 l -13.075617096966273 17.360564284663884 a42.73386653930736,42.73386653930736 0 0,0 -0.5837675538343211,-0.4476080671546435 l 13.372513379294082 -17.13291687568187" fill="#ffd413" stroke="none" /><path d="M 85.70375840098266 115.38237550388516 l -11.669119098175951 12.555661606896614 a38.1409736862966,38.1409736862966 0 0,0 -0.4770603347063287,-0.45109032306956903 l 11.883515267273095 -12.352936647081114" fill="#ff920d" stroke="none" /><path d="M 83.95833913139862 113.55231037782056 l -32.34986309035899 27.329800129278652 a63.348926988429,63.348926988429 0 0,0 -0.6965486020990745,-0.8390376626549415 l 32.8155076923516 -26.76890120950995" fill="#30ff37" stroke="none" /><path d="M 83.72743513129214 113.27417163493432 l -37.153756780226914 30.307781739542026 a68.94750542891647,68.94750542891647 0 0,0 -0.7422759993322975,-0.9261034393194846 l 37.669950691614076 -29.663750466644284" fill="#38ff81" stroke="none" /><path d="M 83.50135304334701 112.99209946851258 l -23.38074651006552 18.411508840993662 a50.75975411810267,50.75975411810267 0 0,0 -0.5346529319338755,-0.6911109864650475 l 23.694206259217466 -18.00631986041536" fill="#bdff1f" stroke="none" /><path d="M 83.28015986056508 112.70617746262583 l -24.31389699341507 18.477251422858266 a51.538081261760965,51.538081261760965 0 0,0 -0.5306918766194745,-0.7109484931588012 l 24.62835013672963 -18.055990050190157" fill="#b3ff20" stroke="none" /><path d="M 82.6465618267979 111.8261652097733 l -22.430805675057517 15.286331795113217 a48.144299272268604,48.144299272268604 0 0,0 -0.46080260218582964,-0.6888373677497275 l 22.69061138265408 -14.89795751315767" fill="#dfff1b" stroke="none" /><path d="M 82.44556493220864 111.52570212397912 l -22.68877381223064 14.896751020937861 a48.14210102557236,48.14210102557236 0 0,0 -0.44885663083895283,-0.6966354588605206 l 22.941835306446638 -14.503993962155892" fill="#dfff1b" stroke="none" /><path d="M 82.05923443525364 110.91462005526583 l -32.602081070729305 19.834121716478446 a59.16134267038423,59.16134267038423 0 0,0 -0.5218005753297807,-0.8745677781657308 l 32.93866252175732 -19.269991844426603" fill="#57ff2a" stroke="none" /><line stroke="#e1ed5e" stroke-width="0.3" x1="26.63291911575756" x2="22.317208475507996" y1="142.92168965132927" y2="145.44649492493687" /><path d="M 25.769776987707644 143.4266507060508 a86.0,86.0 0 0,1 -11.730757126820373,-40.83630448921669" fill="none" id="id21" stroke="none" /><text fill="#e1ed5e" style="font-size:6.75px; font-family:Arial;" text-anchor="middle"><textPath startOffset="21.46611528233685" xlink:href="#id21">September</textPath></text><path d="M 81.18737489456691 109.33194174019688 l -24.162938833085004 11.985947532498768 a47.972403513651145,47.972403513651145 0 0,0 -0.36058512699973555,-0.7429121634061491 l 24.36567721669946 -11.568246413127335" fill="#e2ff1b" stroke="none" /><path d="M 80.87730276802145 108.67885076344099 l -24.545836367534893 11.140146607636096 a47.95553652631356,47.95553652631356 0 0,0 -0.3346814959250477,-0.7546184199764572 l 24.73395894819122 -10.715979851166942" fill="#e2ff1b" stroke="none" /><line stroke="#e1ed5e" stroke-width="0.3" x1="15.007084014347285" x2="10.007500721073583" y1="101.09737516637583" y2="101.16192664675087" /><path d="M 14.007167355692545 101.11028546245083 a86.0,86.0 0 0,1 10.666146001902534,-42.60595125391555" fill="none" id="id22" stroke="none" /><text fill="#e1ed5e" style="font-size:6.75px; font-family:Arial;" text-anchor="middle"><textPath startOffset="22.20632615414155" xlink:href="#id22">October</textPath></text><path d="M 80.38941819471856 92.48833698450439 l -8.393518306571975 -3.2150642780206526 a29.988202705466946,29.988202705466946 0 0,0 0.1887920869103834,-0.48045526864961496 l 8.3369326697799 3.3590685515660312" fill="#ff1302" stroke="none" /><line stroke="#e1ed5e" stroke-width="0.3" x1="26.266209847984243" x2="21.928928074336255" y1="57.711370442889674" y2="55.22380399835377" /><path d="M 25.398753493254645 57.213857153982495 a86.0,86.0 0 0,1 29.58750427330803,-30.492523968695096" fill="none" id="id23" stroke="none" /><text fill="#e1ed5e" style="font-size:6.75px; font-family:Arial;" text-anchor="middle"><textPath startOffset="21.46611528233685" xlink:href="#id23">November</textPath></text><path d="M 82.95767976084542 87.72973835380427 l -18.76688882959426 -13.511929889401777 a44.1250592578367,44.1250592578367 0 0,0 0.4491035661167206,-0.6125767594704732 l 18.531522650963907 13.83296909254375" fill="#ffe815" stroke="none" /><path d="M 85.05521093208273 85.24692304244772 l -12.831209513771519 -12.66661045230325 a39.030057069701655,39.030057069701655 0 0,0 0.47610015898496305,-0.4740556335981494 l 12.611273554619244 12.885601936551508" fill="#ff9f0e" stroke="none" /><path d="M 88.70189139769569 82.29822771554957 l -16.000242076013564 -25.06903161365501 a50.739941031170005,50.739941031170005 0 0,0 0.7402736257958243,-0.4635592765605143 l 15.566349297845498 25.340735231538453" fill="#beff1f" stroke="none" /><line stroke="#e1ed5e" stroke-width="0.3" x1="56.762969772571076" x2="54.21961505331055" y1="26.818313649435495" y2="22.513508569990535" /><path d="M 56.25429882871897 25.957352633546506 a86.0,86.0 0 0,1 42.265352541879196,-11.944610805530505" fill="none" id="id24" stroke="none" /><text fill="#e1ed5e" style="font-size:6.75px; font-family:Arial;" text-anchor="middle"><textPath startOffset="22.20632615414155" xlink:href="#id24">December</textPath></text><path d="M 90.91171255644093 81.06846463323043 l -13.642746374358058 -28.418790348567853 a52.523835006402905,52.523835006402905 0 0,0 0.8184258685809238,-0.38426191919152797 l 13.151542294477526 28.649417250399388" fill="#a7ff21" stroke="none" /><path d="M 91.56875222667455 80.76684994638697 l -15.129371235699525 -34.51274058314803 a58.68324742571008,58.68324742571008 0 0,0 0.9286379173892162,-0.39759429259079254 l 14.53304956052 34.768054403701605" fill="#5dff2a" stroke="none" /></svg>