<?xml version="1.0" encoding="utf-8" ?>
<svg baseProfile="full" height="200mm" version="1.1" viewBox="0,0,200,200" width="200mm" xmlns="http://www.w3.org/2000/svg" xmlns:ev="http://www.w3.org/2001/xml-events" xmlns:xlink="http://www.w3.org/1999/xlink"><defs /><rect fill="#1a1a1a" height="200" width="200" x="0" y="0" /><text alignment-baseline="middle" fill="#e1ed5e" style="dominant-baseline: central; font-size:9.0px; font-family:Arial;" text-anchor="middle" x="100.0" y="100.0">2020</text><line stroke="#e1ed5e" stroke-width="0.3" x1="100.0" x2="100.0" y1="15.0" y2="10.0" /><path d="M 100.0 14.0 a86.0,86.0 0 0,1 42.35913384403234,11.155469271406648" fill="none" id="id13" stroke="none" /><text fill="#e1ed5e" style="font-size:6.75px; font-family:Arial;" text-anchor="middle"><textPath startOffset="22.145653131862478" xlink:href="#id13">January</textPath></text><line stroke="#e1ed5e" stroke-width="0.3" x1="143.13028292997686" x2="145.6673583964461" y1="26.7553504044142" y2="22.446841604673864" /><path d="M 143.63769802327073 25.89364864446614 a86.0,86.0 0 0,1 29.32050498858742,28.57503671076993" fill="none" id="id14" stroke="none" /><text fill="#e1ed5e" style="font-size:6.75px; font-family:Arial;" text-anchor="middle"><textPath startOffset="20.669276256404974" xlink:href="#id14">February</textPath></text><line stroke="#e1ed5e" stroke-width="0.3" x1="172.87174338648825" x2="177.1583165268699" y1="56.24261187166439" y2="53.66864786411523" /><path d="M 173.72905801456457 55.72781907015455 a86.0,86.0 0 0,1 12.242430191666344,42.057860355516425" fill="none" id="id15" stroke="none" /><text fill="#e1ed5e" style="font-size:6.75px; font-family:Arial;" text-anchor="middle"><textPath startOffset="22.145653131862474" xlink:href="#id15">March</textPath></text><line stroke="#e1ed5e" stroke-width="0.3" x1="184.99686870605535" x2="189.99668451229388" y1="99.2704041080226" y2="99.22748670261217" /><path d="M 185.99683186730306 99.26182062694052 a86.0,86.0 0 0,1 -10.086455211305974,41.156179273409016" fill="none" id="id16" stroke="none" /><text fill="#e1ed5e" style="font-size:6.75px; font-family:Arial;" text-anchor="middle"><textPath startOffset="21.40746469413373" xlink:href="#id16">April</textPath></text><line stroke="#e1ed5e" stroke-width="0.3" x1="174.33088141563837" x2="178.70328620479359" y1="141.23008692659167" y2="143.65538615756765" /><path d="M 175.20536237346943 141.71514677278685 a86.0,86.0 0 0,1 -30.301960400862466,31.631185727798858" fill="none" id="id17" stroke="none" /><text fill="#e1ed5e" style="font-size:6.75px; font-family:Arial;" text-anchor="middle"><textPath startOffset="22.145653131862474" xlink:href="#id17">May</textPath></text><path d="M 118.18653347947321 110.5 l 12.77270933112546 7.374327170606126 a35.74865434121226,35.74865434121226 0 0,0 -0.31139850983292455,0.5288227479131105 l -12.644237111162772 -7.592501086812786" fill="#ff2f04" stroke="none" /><line stroke="#e1ed5e" stroke-width="0.3" x1="143.1302829299769" x2="145.66735839644613" y1="173.24464959558577" y2="177.55315839532614" /><path d="M 143.63769802327073 174.10635135553383 a86.0,86.0 0 0,1 -40.68552437913181,11.842963189579606" fill="none" id="id18" stroke="none" /><text fill="#e1ed5e" style="font-size:6.75px; font-family:Arial;" text-anchor="middle"><textPath startOffset="21.407464694133747" xlink:href="#id18">June</textPath></text><path d="M 106.72888874123015 119.89276391827305 l 3.8767378063636864 11.460886473349241 a33.098802204114634,33.098802204114634 0 0,0 -0.5397898650478248,0.17743965023028765 l -3.6794252036681274 -11.525747044981548" fill="#ff0000" stroke="none" /><line stroke="#e1ed5e" stroke-width="0.3" x1="101.45913802915013" x2="101.54496967792366" y1="184.9874750549273" y2="189.98673829345242" /><path d="M 101.47630435890484 185.9873277026323 a86.0,86.0 0 0,1 -42.54439059252881,-10.42667462771756" fill="none" id="id19" stroke="none" /><text fill="#e1ed5e" style="font-size:6.75px; font-family:Arial;" text-anchor="middle"><textPath startOffset="22.145653131862474" xlink:href="#id19">July</textPath></text><path d="M 99.63950707515114 120.99690560180557 l -0.23508774189874979 13.692682392752463 a34.69470033827628,34.69470033827628 0 0,0 -0.5954051463914299,-0.015335524523585015 l 0.4701062023609236 -13.686629150878831" fill="#ff1c02" stroke="none" /><line stroke="#e1ed5e" stroke-width="0.3" x1="58.13341422392154" x2="55.67067388415222" y1="173.97424548756322" y2="178.32567169271397" /><path d="M 57.64086615596768 174.84453072859336 a86.0,86.0 0 0,1 -31.369924170532247,-30.572349798747897" fill="none" id="id20" stroke="none" /><text fill="#e1ed5e" style="font-size:6.75px; font-family:Arial;" text-anchor="middle"><textPath startOffset="22.145653131862474" xlink:href="#id20">August</textPath></text><line stroke="#e1ed5e" stroke-width="0.3" x1="26.387840678322732" x2="22.057713659400548" y1="142.50000000000003" y2="145.00000000000006" /><path d="M 25.521815274538298 143.00000000000003 a86.0,86.0 0 0,1 -11.493303480769221,-40.785679425670985" fill="none" id="id21" stroke="none" /><text fill="#e1ed5e" style="font-size:6.75px; font-family:Arial;" text-anchor="middle"><textPath startOffset="21.40746469413373" xlink:href="#id21">September</textPath></text><path d="M 80.5471966667186 107.91128576633889 l -58.35840999984417 23.733857299016694 a84.0,84.0 0 0,0 -0.5317653001355023,-1.3403959311457387 l 58.7572339749458 -22.72856035065739" fill="#4dd2ff" stroke="none" /><path d="M 79.94057633289273 106.21446072829308 l -56.6420630038397 17.547855907947213 a80.29798097993745,80.29798097993745 0 0,0 -0.39660962302465064,-1.3201844447599862 l 56.934948946867976 -16.572933859596503" fill="#47fcff" stroke="none" /><path d="M 79.83685265289637 105.86919833188381 l -26.562607639512464 7.731987956270392 a48.665063932089446,48.665063932089446 0 0,0 -0.2265973016460436,-0.8041138841518648 l 26.691423433233084 -7.274866148215532" fill="#fffe18" stroke="none" /><path d="M 79.48165901384964 104.47187691870673 l -35.32639925758395 7.699224297307452 a57.15567091462247,57.15567091462247 0 0,0 -0.20070428631492462,-0.9604426657864431 l 35.45336125472324 -7.0916651802356" fill="#8aff24" stroke="none" /><path d="M 79.34024301695615 103.76489593502545 l -35.34087399665249 6.4402845086438445 a56.922898538391166,56.922898538391166 0 0,0 -0.1669336712075166,-0.9628290546281312 l 35.446222485352244 -5.832662421095121" fill="#8dff24" stroke="none" /><path d="M 79.22317932658666 103.0534771498775 l -34.24464554156128 5.032783615474748 a55.61249281960726,55.61249281960726 0 0,0 -0.13070387946102324,-0.9457081617152637 l 34.32599393757752 -4.444187145559399" fill="#9eff22" stroke="none" /><path d="M 79.17382384314188 102.69636545807758 l -26.45021406845952 3.4245097628959718 a47.67097844818416,47.67097844818416 0 0,0 -0.09810667783291271,-0.8124640292311176 l 26.505102832552094 -2.969952056741455" fill="#ffef16" stroke="none" /><path d="M 79.0935383218832 101.97986365728391 l -38.95959587362358 3.6895142353712584 a60.13390634640343,60.13390634640343 0 0,0 -0.08850100943812683,-1.0285158808910102 l 39.017190505759444 -3.020177307104586" fill="#63ff29" stroke="none" /><path d="M 79.06263194458094 101.62068470465958 l -35.7574058233018 2.76784935636317 a56.86437035933877,56.86437035933877 0 0,0 -0.06698091778726994,-0.9738878443361446 l 35.799650702254134 -2.1536180878726823" fill="#8dff24" stroke="none" /><line stroke="#e1ed5e" stroke-width="0.3" x1="15.003131293944662" x2="10.003315487706104" y1="100.72959589197737" y2="100.7725132973878" /><path d="M 14.003168132696942 100.73817937305945 a86.0,86.0 0 0,1 10.791469493833604,-42.45332614584628" fill="none" id="id22" stroke="none" /><text fill="#e1ed5e" style="font-size:6.75px; font-family:Arial;" text-anchor="middle"><textPath startOffset="22.145653131862435" xlink:href="#id22">October</textPath></text><path d="M 79.01933749520258 99.09900007780938 l -33.82893579667431 -1.4527600600612882 a54.86011531178861,54.86011531178861 0 0,0 0.0484817401150507,-0.9405328062309541 l 33.799012467102685 2.0332646596689545" fill="#a8ff21" stroke="none" /><path d="M 79.13060592940154 97.66154086499901 l -28.805917675728935 -3.2277631589599465 a49.98619237069974,49.98619237069974 0 0,0 0.10287137857545367,-0.8519225864759489 l 28.746264210893813 3.7217794223593317" fill="#edff1a" stroke="none" /><path d="M 79.34024301695615 96.23510406497455 l -31.4948881318857 -5.739417767553419 a53.013573601684996,53.013573601684996 0 0,0 0.17083928976184137,-0.8939033538463927 l 31.391722549841695 6.2792236864331255" fill="#c2ff1e" stroke="none" /><path d="M 79.407916724674 95.88100663000787 l -39.98464473272884 -7.998048781831838 a61.77671637980554,61.77671637980554 0 0,0 0.21693126112384267,-1.0380946144781227 l 39.841455760780626 8.68325984759537" fill="#4fff2b" stroke="none" /><path d="M 79.73907114497095 94.47779374421319 l -39.04290430492217 -10.641317184390157 a61.46709784481842,61.46709784481842 0 0,0 0.28620692928883584,-1.0156474234681032 l 38.854478883558755 11.309972531761273" fill="#53ff2b" stroke="none" /><path d="M 80.05021161711548 93.44210830539832 l -28.826877590552762 -9.475967238558333 a51.344403548709664,51.344403548709664 0 0,0 0.28242986335940784,-0.8349537065241553 l 28.659962305620986 9.96942261955665" fill="#d9ff1c" stroke="none" /><path d="M 80.5471966667186 92.08871423366112 l -46.05715958018751 -18.731045843728864 a70.72035827500372,70.72035827500372 0 0,0 0.46700409323160963,-1.1206398168851304 l 45.72882964241942 19.518918170055258" fill="#39ff89" stroke="none" /><path d="M 80.68587082218212 91.75594674310238 l -47.23729012817075 -20.162790252817448 a72.36048762844925,72.36048762844925 0 0,0 0.4974477473465599,-1.1382577958662343 l 46.88420849880721 20.97071011845955" fill="#3bff9f" stroke="none" /><line stroke="#e1ed5e" stroke-width="0.3" x1="26.387840678322718" x2="22.05771365940052" y1="57.49999999999999" y2="54.99999999999999" /><path d="M 25.521815274538284 56.99999999999999 a86.0,86.0 0 0,1 29.574782752854787,-30.34633250058573" fill="none" id="id23" stroke="none" /><text fill="#e1ed5e" style="font-size:6.75px; font-family:Arial;" text-anchor="middle"><textPath startOffset="21.40746469413373" xlink:href="#id23">November</textPath></text><path d="M 81.81346652052679 89.5 l -29.942409630077105 -17.287258260111063 a55.57451652022212,55.57451652022212 0 0,0 0.4840971484940722,-0.8221027918884066 l 29.641238771453253 17.798712220293044" fill="#9fff22" stroke="none" /><path d="M 82.18462484594161 88.88188828441811 l -34.49821959815513 -21.52944050653856 a61.66502138161393,61.66502138161393 0 0,0 0.5681471753739771,-0.8932217264254413 l 34.12355473115527 22.118475907642676" fill="#50ff2b" stroke="none" /><path d="M 82.98947788004972 87.6856937992154 l -22.035182016411994 -15.951772475100988 a48.20309341956896,48.20309341956896 0 0,0 0.4909783015361103,-0.6661063611467849 l 21.758101695292066 16.327685145516636" fill="#fff717" stroke="none" /><path d="M 83.2033758604659 87.39550010848427 l -26.520176739085688 -19.90123503710523 a54.156883603174265,54.156883603174265 0 0,0 0.5643869947241741,-0.7388006931598615 l 26.17463776700721 20.35355664350598" fill="#b2ff20" stroke="none" /><line stroke="#e1ed5e" stroke-width="0.3" x1="56.869717070023135" x2="54.33264160355391" y1="26.7553504044142" y2="22.446841604673864" /><path d="M 56.362301976729285 25.89364864446614 a86.0,86.0 0 0,1 42.16139366436587,-11.88097634709845" fill="none" id="id24" stroke="none" /><text fill="#e1ed5e" style="font-size:6.75px; font-family:Arial;" text-anchor="middle"><textPath startOffset="22.145653131862474" xlink:href="#id24">December</textPath></text></svg>