<?xml version="1.0" encoding="utf-8" ?>
<svg baseProfile="full" height="200mm" version="1.1" viewBox="0,0,200,200" width="200mm" xmlns="http://www.w3.org/2000/svg" xmlns:ev="http://www.w3.org/2001/xml-events" xmlns:xlink="http://www.w3.org/1999/xlink"><defs /><rect fill="#1a1a1a" height="200" width="200" x="0" y="0" /><text alignment-baseline="middle" fill="#e1ed5e" style="dominant-baseline: central; font-size:9.0px; font-family:Arial;" text-anchor="middle" x="100.0" y="100.0">2021</text><line stroke="#e1ed5e" stroke-width="0.3" x1="100.0" x2="100.0" y1="15.0" y2="10.0" /><path d="M 100.0 14.0 a86.0,86.0 0 0,1 42.46469731375804,11.215312516191453" fill="none" id="id25" stroke="none" /><text fill="#e1ed5e" style="font-size:6.75px; font-family:Arial;" text-anchor="middle"><textPath startOffset="22.20632615414155" xlink:href="#id25">January</textPath></text><line stroke="#e1ed5e" stroke-width="0.3" x1="143.23703022742887" x2="145.7803849466894" y1="26.81831364943548" y2="22.513508569990506" /><path d="M 143.74570117128098 25.957352633546492 a86.0,86.0 0 0,1 28.547481713284135,27.462654790039103" fill="none" id="id26" stroke="none" /><text fill="#e1ed5e" style="font-size:6.75px; font-family:Arial;" text-anchor="middle"><textPath startOffset="19.985693538727396" xlink:href="#id26">February</textPath></text><line stroke="#e1ed5e" stroke-width="0.3" x1="172.23445277983987" x2="176.4835382374775" y1="55.19839476539836" y2="52.563006222186495" /><path d="M 173.08426987136738 54.67131705675599 a86.0,86.0 0 0,1 12.851231095245387,41.99856678651699" fill="none" id="id27" stroke="none" /><text fill="#e1ed5e" style="font-size:6.75px; font-family:Arial;" text-anchor="middle"><textPath startOffset="22.20632615414155" xlink:href="#id27">March</textPath></text><path d="M 119.196687751892 91.48605970444005 l 40.99832896660662 -18.183205850447397 a65.84965945304201,65.84965945304201 0 0,0 0.4506289436713274,1.0401137318692826 l -41.30524862012063 17.474792973991512" fill="#36ff2f" stroke="none" /><path d="M 119.34039704204932 91.81776055985345 l 44.087210711566186 -18.651742955738445 a68.8703422132428,68.8703422132428 0 0,0 0.45250541153112145,1.0957777464298932 l -44.40173780998351 17.89009063885525" fill="#34ff58" stroke="none" /><path d="M 119.7369772167798 92.82701384747503 l 46.00745256745145 -16.720433760176455 a69.95159442627731,69.95159442627731 0 0,0 0.4015452000252108,1.1352223531294336 l -46.28845084828647 15.926013780620407" fill="#35ff69" stroke="none" /><path d="M 120.6074358757038 95.95851677861258 l 61.822307627111385 -12.124449664162288 a84.0,84.0 0 0,0 0.26605710436056285,1.4212876901497489 l -62.02185045538181 11.058483896549978" fill="#4dd2ff" stroke="none" /><path d="M 120.94382443527127 98.46500227214037 l 41.78513488953216 -3.06248208449086 a62.89721105579971,62.89721105579971 0 0,0 0.06984408520437105,1.0804570843877868 l -41.83165956574094 2.342765935850038" fill="#5eff2a" stroke="none" /><line stroke="#e1ed5e" stroke-width="0.3" x1="184.98032266829074" x2="189.97916517819016" y1="98.17113171792111" y2="98.06355123074" /><path d="M 185.9800911702706 98.14961562048488 a86.0,86.0 0 0,1 -9.607161424134198,41.387399972396054" fill="none" id="id28" stroke="none" /><text fill="#e1ed5e" style="font-size:6.75px; font-family:Arial;" text-anchor="middle"><textPath startOffset="21.466115282336823" xlink:href="#id28">April</textPath></text><path d="M 120.95626037817324 101.35467743843564 l 61.00541074951582 3.943578294672448 a82.1327404136552,82.1327404136552 0 0,0 -0.1033442689551143,1.4100504424885747 l -60.928489921896364 -4.993101873657793" fill="#4ae9ff" stroke="none" /><path d="M 120.8583938346157 102.4346265915055 l 44.53159122788409 5.197801759094917 a65.83391306159004,65.83391306159004 0 0,0 -0.14106793943551257,1.124450275284739 l -44.435521779201736 -5.963569788667051" fill="#36ff2e" stroke="none" /><path d="M 120.81339534386255 102.79330883721812 l 16.995445857424073 2.2809122837328717 a38.147820291183265,38.147820291183265 0 0,0 -0.09294616318316871,0.6500652488227405 l -16.9536656432243 -2.5731230045360216" fill="#ff0000" stroke="none" /><path d="M 119.41010516605496 108.01547362559984 l 41.45897554047552 17.12063495514856 a65.85490825019266,65.85490825019266 0 0,0 -0.44169520051000744,1.044036979352699 l -41.1581293587732 -17.831746460167423" fill="#36ff2f" stroke="none" /><line stroke="#e1ed5e" stroke-width="0.3" x1="174.80103733775053" x2="179.2010983576182" y1="140.37084112569926" y2="142.7455964860345" /><path d="M 175.68104954172406 140.8457921977663 a86.0,86.0 0 0,1 -30.038265399797805,32.042727171017184" fill="none" id="id29" stroke="none" /><text fill="#e1ed5e" style="font-size:6.75px; font-family:Arial;" text-anchor="middle"><textPath startOffset="22.206326154141568" xlink:href="#id29">May</textPath></text><path d="M 116.93607887273984 112.41649034213515 l 30.249372758225967 22.176977772151645 a58.507904438566165,58.507904438566165 0 0,0 -0.6024607211485785,0.8070945887024953 l -29.863150770382298 -22.694385240363456" fill="#9dff22" stroke="none" /><path d="M 116.71984013943494 112.70617746262583 l 48.06270599078739 36.52506642169326 a81.36641602965986,81.36641602965986 0 0,0 -0.8570331682456781,1.1078308991912351 l -47.426866005323646 -37.34697531499775" fill="#49f3ff" stroke="none" /><path d="M 112.92097659922987 116.55440617244103 l 28.751467226792315 36.83649319156845 a67.72872883297578,67.72872883297578 0 0,0 -0.9252107884683397,0.7094121795855637 l -28.11312770983048 -37.32594471298139" fill="#32ff46" stroke="none" /><path d="M 111.45004920935366 117.60387380957326 l 21.496834801039782 33.050300502953796 a60.42633979712982,60.42633979712982 0 0,0 -0.8768097796133928,0.5596214861681621 l -20.924743219379458 -33.41543641794576" fill="#81ff25" stroke="none" /><line stroke="#e1ed5e" stroke-width="0.3" x1="143.8653032363475" x2="146.44561519142675" y1="172.8068346515853" y2="177.08958963109032" /><path d="M 144.38136562736335 173.6633856474863 a86.0,86.0 0 0,1 -40.68145358897372,12.25698825130547" fill="none" id="id30" stroke="none" /><text fill="#e1ed5e" style="font-size:6.75px; font-family:Arial;" text-anchor="middle"><textPath startOffset="21.466115282336833" xlink:href="#id30">June</textPath></text><path d="M 109.2508944713604 118.85261126421891 l 13.707840588230223 27.935524578931112 a52.117493907646164,52.117493907646164 0 0,0 -0.808782430479854,0.3882647162576893 l -13.224945489750136 -28.16734357168836" fill="#fffd17" stroke="none" /><path d="M 108.92500713936063 119.00905698771935 l 17.849828383673465 38.01771804415237 a62.99956260023744,62.99956260023744 0 0,0 -0.9855891698491396,0.45243564778160417 l -17.192771218056908 -38.31934076226804" fill="#5cff2a" stroke="none" /><path d="M 108.59647513512805 119.15986991738527 l 17.302888320556413 38.56477035130372 a63.268563454208405,63.268563454208405 0 0,0 -0.997472062085353,0.43726243901641354 l -16.636495583813304 -38.85689734361459" fill="#59ff2a" stroke="none" /><path d="M 106.57524785965236 119.94407469862006 l 19.405684545652065 58.86141943503921 a82.97779675491032,82.97779675491032 0 0,0 -1.3603563930522788,0.43554315841634295 l -18.389606807508844 -59.186735440115264" fill="#4bdfff" stroke="none" /><path d="M 105.88484417918355 120.15858648285463 l 17.637617486901274 60.417816790951385 a83.93963883276749,83.93963883276749 0 0,0 -1.3904754338321952,0.3929622466846799 l -16.595010884964474 -60.71246783097458" fill="#4dd3ff" stroke="none" /><path d="M 105.53697534728816 120.25689768951611 l 16.35455362310582 59.8327604371973 a83.02766032784153,83.02766032784153 0 0,0 -1.3818552759800617,0.36496053787349536 l -15.322207904314261 -60.10541232437438" fill="#4bdeff" stroke="none" /><line stroke="#e1ed5e" stroke-width="0.3" x1="102.19456741930631" x2="102.32365962044197" y1="184.97166512339345" y2="189.96999836594603" /><path d="M 102.22038585953345 185.97133177190398 a86.0,86.0 0 0,1 -42.740103519485714,-10.115201625700543" fill="none" id="id31" stroke="none" /><text fill="#e1ed5e" style="font-size:6.75px; font-family:Arial;" text-anchor="middle"><textPath startOffset="22.20632615414155" xlink:href="#id31">July</textPath></text><path d="M 90.7491055286396 118.85261126421891 l -25.215050784312655 51.38633371247171 a78.23944512715836,78.23944512715836 0 0,0 -1.2039414741862053,-0.6036812485719835 l 26.09584616618162 -50.94468462299043" fill="#43ffe2" stroke="none" /><path d="M 90.10565033884886 118.52300852407294 l -27.287310198364946 51.0840122608454 a78.91522776030493,78.91522776030493 0 0,0 -1.1926615755862562,-0.650334184877524 l 28.162594585819843 -50.606737424208106" fill="#44ffeb" stroke="none" /><line stroke="#e1ed5e" stroke-width="0.3" x1="58.666819895761336" x2="56.23545636021788" y1="174.27360380694188" y2="178.64263932499728" /><path d="M 58.180547188652646 175.14741091055294 a86.0,86.0 0 0,1 -31.652253787137756,-30.449443065178592" fill="none" id="id32" stroke="none" /><text fill="#e1ed5e" style="font-size:6.75px; font-family:Arial;" text-anchor="middle"><textPath startOffset="22.20632615414155" xlink:href="#id32">August</textPath></text><path d="M 85.70375840098266 115.38237550388516 l -34.8507179710356 37.49844507715347 a72.19283080960614,72.19283080960614 0 0,0 -0.9029747460747676,-0.8538189832555899 l 35.49102855150119 -36.89299145715195" fill="#39ff8b" stroke="none" /><path d="M 84.9287848128048 114.62390073753433 l -37.52626165541359 36.41248026010296 a73.28851721480494,73.28851721480494 0 0,0 -0.8707145192497298,-0.9129406923625667 l 38.147482726042284 -35.7611324511579" fill="#3bff9c" stroke="none" /><path d="M 84.19399662182784 113.82643327865904 l -15.089299511260815 13.199490593698487 a41.047780716919036,41.047780716919036 0 0,0 -0.4606293805446724,-0.5358160344334878 l 15.314271401376265 -12.937797460103468" fill="#ff3805" stroke="none" /><path d="M 83.28015986056508 112.70617746262583 l -27.907377672070083 21.20810308356385 a56.051467372060564,56.051467372060564 0 0,0 -0.5771665859245784,-0.7732089610614381 l 28.268305524689747 -20.724581242993104" fill="#c2ff1e" stroke="none" /><path d="M 82.24976979558568 111.22182372390057 l -16.25881305741452 10.278939032846122 a40.23552935785549,40.23552935785549 0 0,0 -0.3650614802071207,-0.5885953441997058 l 16.433339177289596 -9.997547357281151" fill="#ff2904" stroke="none" /><line stroke="#e1ed5e" stroke-width="0.3" x1="26.63291911575756" x2="22.317208475507996" y1="142.92168965132927" y2="145.44649492493687" /><path d="M 25.769776987707644 143.4266507060508 a86.0,86.0 0 0,1 -11.730757126820373,-40.83630448921669" fill="none" id="id33" stroke="none" /><text fill="#e1ed5e" style="font-size:6.75px; font-family:Arial;" text-anchor="middle"><textPath startOffset="21.46611528233685" xlink:href="#id33">September</textPath></text><path d="M 81.87401531095188 110.60418214915194 l -43.92618759421926 25.697985646449332 a71.89102497344358,71.89102497344358 0 0,0 -0.6156884445730203,-1.0735046996465114 l 44.36202803494466 -24.938061100944516" fill="#39ff87" stroke="none" /><path d="M 81.02952815118164 109.00673069616217 l -31.225354779628002 14.825058840576352 a55.56595363562516,55.56595363562516 0 0,0 -0.4027880277544508,-0.8675695780779329 l 31.47591742422228 -14.285369195219591" fill="#caff1d" stroke="none" /><path d="M 80.73074385275274 108.34839909993369 l -46.54385655128971 20.165111054156547 a71.72437566391035,71.72437566391035 0 0,0 -0.48106228270743695,-1.1370891328193318 l 46.88406981518945 -19.360947395671054" fill="#38ff84" stroke="none" /><path d="M 79.86692584326677 105.97154293290107 l -41.40298703873574 12.280276361544686 a64.18579075628502,64.18579075628502 0 0,0 -0.305057834512623,-1.0619463417665445 l 41.608237510134465 -11.565772544273546" fill="#4cff2c" stroke="none" /><line stroke="#e1ed5e" stroke-width="0.3" x1="15.007084014347285" x2="10.007500721073583" y1="101.09737516637583" y2="101.16192664675087" /><path d="M 14.007167355692545 101.11028546245083 a86.0,86.0 0 0,1 10.666146001902534,-42.60595125391555" fill="none" id="id34" stroke="none" /><text fill="#e1ed5e" style="font-size:6.75px; font-family:Arial;" text-anchor="middle"><textPath startOffset="22.20632615414155" xlink:href="#id34">October</textPath></text><line stroke="#e1ed5e" stroke-width="0.3" x1="26.266209847984243" x2="21.928928074336255" y1="57.711370442889674" y2="55.22380399835377" /><path d="M 25.398753493254645 57.213857153982495 a86.0,86.0 0 0,1 29.58750427330803,-30.492523968695096" fill="none" id="id35" stroke="none" /><text fill="#e1ed5e" style="font-size:6.75px; font-family:Arial;" text-anchor="middle"><textPath startOffset="21.46611528233685" xlink:href="#id35">November</textPath></text><line stroke="#e1ed5e" stroke-width="0.3" x1="56.762969772571076" x2="54.21961505331055" y1="26.818313649435495" y2="22.513508569990535" /><path d="M 56.25429882871897 25.957352633546506 a86.0,86.0 0 0,1 42.265352541879196,-11.944610805530505" fill="none" id="id36" stroke="none" /><text fill="#e1ed5e" style="font-size:6.75px; font-family:Arial;" text-anchor="middle"><textPath startOffset="22.20632615414155" xlink:href="#id36">December</textPath></text></svg>