<?xml version="1.0" encoding="utf-8" ?>
<svg baseProfile="full" height="200mm" version="1.1" viewBox="0,0,200,200" width="200mm" xmlns="http://www.w3.org/2000/svg" xmlns:ev="http://www.w3.org/2001/xml-events" xmlns:xlink="http://www.w3.org/1999/xlink"><defs /><rect fill="#1a1a1a" height="200" width="200" x="0" y="0" /><text alignment-baseline="middle" fill="#e1ed5e" style="dominant-baseline: central; font-size:9.0px; font-family:Arial;" text-anchor="middle" x="100.0" y="100.0">2020</text><line stroke="#e1ed5e" stroke-width="0.3" x1="100.0" x2="100.0" y1="15.0" y2="10.0" /><path d="M 100.0 14.0 a86.0,86.0 0 0,1 42.35913384403234,11.155469271406648" fill="none" id="id13" stroke="none" /><text fill="#e1ed5e" style="font-size:6.75px; font-family:Arial;" text-anchor="middle"><textPath startOffset="22.145653131862478" xlink:href="#id13">January</textPath></text><line stroke="#e1ed5e" stroke-width="0.3" x1="143.13028292997686" x2="145.6673583964461" y1="26.7553504044142" y2="22.446841604673864" /><path d="M 143.63769802327073 25.89364864446614 a86.0,86.0 0 0,1 29.32050498858742,28.57503671076993" fill="none" id="id14" stroke="none" /><text fill="#e1ed5e" style="font-size:6.75px; font-family:Arial;" text-anchor="middle"><textPath startOffset="20.669276256404974" xlink:href="#id14">February</textPath></text><line stroke="#e1ed5e" stroke-width="0.3" x1="172.87174338648825" x2="177.1583165268699" y1="56.24261187166439" y2="53.66864786411523" /><path d="M 173.72905801456457 55.72781907015455 a86.0,86.0 0 0,1 12.242430191666344,42.057860355516425" fill="none" id="id15" stroke="none" /><text fill="#e1ed5e" style="font-size:6.75px; font-family:Arial;" text-anchor="middle"><textPath startOffset="22.145653131862474" xlink:href="#id15">March</textPath></text><line stroke="#e1ed5e" stroke-width="0.3" x1="184.99686870605535" x2="189.99668451229388" y1="99.2704041080226" y2="99.22748670261217" /><path d="M 185.99683186730306 99.26182062694052 a86.0,86.0 0 0,1 -10.086455211305974,41.156179273409016" fill="none" id="id16" stroke="none" /><text fill="#e1ed5e" style="font-size:6.75px; font-family:Arial;" text-anchor="middle"><textPath startOffset="21.40746469413373" xlink:href="#id16">April</textPath></text><line stroke="#e1ed5e" stroke-width="0.3" x1="174.33088141563837" x2="178.70328620479359" y1="141.23008692659167" y2="143.65538615756765" /><path d="M 175.20536237346943 141.71514677278685 a86.0,86.0 0 0,1 -30.301960400862466,31.631185727798858" fill="none" id="id17" stroke="none" /><text fill="#e1ed5e" style="font-size:6.75px; font-family:Arial;" text-anchor="middle"><textPath startOffset="22.145653131862474" xlink:href="#id17">May</textPath></text><path d="M 118.18653347947321 110.5 l 12.815510542540874 7.399038461538456 a35.79807692307692,35.79807692307692 0 0,0 -0.3118290188584631,0.5295538463567377 l -12.686607813552646 -7.617943476188744" fill="#ff1b02" stroke="none" /><line stroke="#e1ed5e" stroke-width="0.3" x1="143.1302829299769" x2="145.66735839644613" y1="173.24464959558577" y2="177.55315839532614" /><path d="M 143.63769802327073 174.10635135553383 a86.0,86.0 0 0,1 -40.68552437913181,11.842963189579606" fill="none" id="id18" stroke="none" /><text fill="#e1ed5e" style="font-size:6.75px; font-family:Arial;" text-anchor="middle"><textPath startOffset="21.407464694133747" xlink:href="#id18">June</textPath></text><path d="M 106.72888874123015 119.89276391827305 l 7.508996172218914 22.199012921984927 a44.434615384615384,44.434615384615384 0 0,0 -0.7246593062189975,0.23820990751693624 l -7.126814128352182 -22.32464375090388" fill="#ffae10" stroke="none" /><line stroke="#e1ed5e" stroke-width="0.3" x1="101.45913802915013" x2="101.54496967792366" y1="184.9874750549273" y2="189.98673829345242" /><path d="M 101.47630435890484 185.9873277026323 a86.0,86.0 0 0,1 -42.54439059252881,-10.42667462771756" fill="none" id="id19" stroke="none" /><text fill="#e1ed5e" style="font-size:6.75px; font-family:Arial;" text-anchor="middle"><textPath startOffset="22.145653131862474" xlink:href="#id19">July</textPath></text><path d="M 99.63950707515114 120.99690560180557 l -0.22877435615407768 13.324959324222766 a34.32692307692308,34.32692307692308 0 0,0 -0.5890936212305148,-0.015172962023960929 l 0.4574812914553364 -13.319068644848757" fill="#ff0000" stroke="none" /><line stroke="#e1ed5e" stroke-width="0.3" x1="58.13341422392154" x2="55.67067388415222" y1="173.97424548756322" y2="178.32567169271397" /><path d="M 57.64086615596768 174.84453072859336 a86.0,86.0 0 0,1 -31.369924170532247,-30.572349798747897" fill="none" id="id20" stroke="none" /><text fill="#e1ed5e" style="font-size:6.75px; font-family:Arial;" text-anchor="middle"><textPath startOffset="22.145653131862474" xlink:href="#id20">August</textPath></text><line stroke="#e1ed5e" stroke-width="0.3" x1="26.387840678322732" x2="22.057713659400548" y1="142.50000000000003" y2="145.00000000000006" /><path d="M 25.521815274538298 143.00000000000003 a86.0,86.0 0 0,1 -11.493303480769221,-40.785679425670985" fill="none" id="id21" stroke="none" /><text fill="#e1ed5e" style="font-size:6.75px; font-family:Arial;" text-anchor="middle"><textPath startOffset="21.40746469413373" xlink:href="#id21">September</textPath></text><path d="M 80.5471966667186 107.91128576633889 l -56.43450637347568 22.951422443005153 a81.92307692307692,81.92307692307692 0 0,0 -0.5186172570002838,-1.3072542735075199 l 56.82018230544209 -21.979267152284066" fill="#4aeaff" stroke="none" /><path d="M 79.94057633289273 106.21446072829308 l -60.17827100132179 18.643382184879247 a84.0,84.0 0 0,0 -0.41489471998548133,-1.3810495856371061 l 60.4894420413109 -17.607594995651418" fill="#4dd2ff" stroke="none" /><path d="M 79.83685265289637 105.86919833188381 l -23.265170015888806 6.77215192140439 a45.230769230769226,45.230769230769226 0 0,0 -0.21060632476245372,-0.7473675485166247 l 23.377994832725832 -6.37177644898477" fill="#ffbb11" stroke="none" /><path d="M 79.48165901384964 104.47187691870673 l -34.32876280375158 7.481794075528569 a56.13461538461539,56.13461538461539 0 0,0 -0.19711881145025026,-0.9432848706024642 l 34.45213932602619 -6.891392753640695" fill="#a0ff22" stroke="none" /><path d="M 79.34024301695615 103.76489593502545 l -34.224817199932524 6.236901782473486 a55.78846153846154,55.78846153846154 0 0,0 -0.1636067897939819,-0.9436404867191948 l 34.32683880721874 -5.648468262833698" fill="#a5ff21" stroke="none" /><path d="M 79.22317932658666 103.0534771498775 l -33.81941277197089 4.970289042039607 a55.18269230769231,55.18269230769231 0 0,0 -0.12969373603005277,-0.9383992670511486 l 33.89975102455616 -4.389001466788372" fill="#aeff20" stroke="none" /><path d="M 79.17382384314188 102.69636545807758 l -26.004112811241814 3.3667530238908276 a47.22115384615385,47.22115384615385 0 0,0 -0.09718094064963519,-0.804797597357686 l 26.058075838151108 -2.9198617496097423" fill="#ffda14" stroke="none" /><path d="M 79.0935383218832 101.97986365728391 l -37.993473626577654 3.5980214541024957 a59.16346153846154,59.16346153846154 0 0,0 -0.08707277451501871,-1.0119176261435676 l 38.04964002379041 -2.945282780583266" fill="#77ff26" stroke="none" /><path d="M 79.06263194458094 101.62068470465958 l -34.77098623489237 2.691494241666794 a55.875,55.875 0 0,0 -0.06581553190009203,-0.9569433893036222 l 34.812065727957524 -2.0942074282088288" fill="#a4ff21" stroke="none" /><line stroke="#e1ed5e" stroke-width="0.3" x1="15.003131293944662" x2="10.003315487706104" y1="100.72959589197737" y2="100.7725132973878" /><path d="M 14.003168132696942 100.73817937305945 a86.0,86.0 0 0,1 10.791469493833604,-42.45332614584628" fill="none" id="id22" stroke="none" /><text fill="#e1ed5e" style="font-size:6.75px; font-family:Arial;" text-anchor="middle"><textPath startOffset="22.145653131862435" xlink:href="#id22">October</textPath></text><path d="M 79.01933749520258 99.09900007780938 l -33.54600433459369 -1.4406097657003916 a54.57692307692308,54.57692307692308 0 0,0 0.04823147355517709,-0.9356777018286552 l 33.51633127158194 2.0162592609057586" fill="#b6ff1f" stroke="none" /><path d="M 79.13060592940154 97.66154086499901 l -28.036081594842443 -3.141501420372212 a49.21153846153846,49.21153846153846 0 0,0 0.10127714401237067,-0.8387200373195298 l 27.978022364570403 3.622315134615178" fill="#fff917" stroke="none" /><path d="M 79.34024301695615 96.23510406497455 l -30.470303671283208 -5.552704348127503 a51.972115384615385,51.972115384615385 0 0,0 0.16748313076268365,-0.8763425117849962 l 30.370494248238366 6.074949424945814" fill="#dcff1b" stroke="none" /><path d="M 79.407916724674 95.88100663000787 l -38.779871113285644 -7.757060316290127 a60.54807692307692,60.54807692307692 0 0,0 0.2126168474995248,-1.017448583450448 l 38.64099655496175 8.421625351025984" fill="#65ff29" stroke="none" /><path d="M 79.73907114497095 94.47779374421319 l -37.98924160317948 -10.354136729600274 a60.375,60.375 0 0,0 0.2811218352855766,-0.9976022187788371 l 37.805901275819316 11.004746872282123" fill="#68ff28" stroke="none" /><path d="M 80.05021161711548 93.44210830539832 l -28.033837246828117 -9.215279125793302 a50.50961538461539,50.50961538461539 0 0,0 0.2778379489378969,-0.8213785274666799 l 27.871513876317856 9.695159327734142" fill="#f1ff19" stroke="none" /><path d="M 80.5471966667186 92.08871423366112 l -45.051409917462145 -18.32201621160349 a69.63461538461539,69.63461538461539 0 0,0 0.4598343561661275,-1.103435057979106 l 44.73024971675954 19.09268377902386" fill="#37ff75" stroke="none" /><path d="M 80.68587082218212 91.75594674310238 l -46.32207355009617 -19.772138717779157 a71.36538461538461,71.36538461538461 0 0,0 0.49060683501373364,-1.1226044496902547 l 45.97583283306546 20.56440523724528" fill="#39ff8d" stroke="none" /><line stroke="#e1ed5e" stroke-width="0.3" x1="26.387840678322718" x2="22.05771365940052" y1="57.49999999999999" y2="54.99999999999999" /><path d="M 25.521815274538284 56.99999999999999 a86.0,86.0 0 0,1 29.574782752854787,-30.34633250058573" fill="none" id="id23" stroke="none" /><text fill="#e1ed5e" style="font-size:6.75px; font-family:Arial;" text-anchor="middle"><textPath startOffset="21.40746469413373" xlink:href="#id23">November</textPath></text><path d="M 81.81346652052679 89.5 l -29.2283573777248 -16.875000000000004 a54.75,54.75 0 0,0 0.4769149700187895,-0.8099058826631852 l 28.934368697576232 17.37425705095676" fill="#b4ff20" stroke="none" /><path d="M 82.18462484594161 88.88188828441811 l -33.55065842886544 -20.93809225558072 a60.54807692307692,60.54807692307692 0 0,0 0.5578562709852432,-0.8770427154525653 l 33.18628446625431 21.51094864571196" fill="#65ff29" stroke="none" /><path d="M 82.98947788004972 87.6856937992154 l -21.520179769882166 -15.578950564454143 a47.56730769230769,47.56730769230769 0 0,0 0.4845024309152237,-0.6573205989225884 l 21.249575319383123 15.946077472645594" fill="#ffe015" stroke="none" /><path d="M 83.2033758604659 87.39550010848427 l -25.817887928761902 -19.374224421162236 a53.27884615384615,53.27884615384615 0 0,0 0.55523667283873,-0.7268226280825367 l 25.481499278568865 19.814567962485658" fill="#c9ff1d" stroke="none" /><line stroke="#e1ed5e" stroke-width="0.3" x1="56.869717070023135" x2="54.33264160355391" y1="26.7553504044142" y2="22.446841604673864" /><path d="M 56.362301976729285 25.89364864446614 a86.0,86.0 0 0,1 42.16139366436587,-11.88097634709845" fill="none" id="id24" stroke="none" /><text fill="#e1ed5e" style="font-size:6.75px; font-family:Arial;" text-anchor="middle"><textPath startOffset="22.145653131862474" xlink:href="#id24">December</textPath></text></svg>