<?xml version="1.0" encoding="utf-8" ?>
<svg baseProfile="full" height="200mm" version="1.1" viewBox="0,0,200,200" width="200mm" xmlns="http://www.w3.org/2000/svg" xmlns:ev="http://www.w3.org/2001/xml-events" xmlns:xlink="http://www.w3.org/1999/xlink"><defs /><rect fill="#1a1a1a" height="200" width="200" x="0" y="0" /><text alignment-baseline="middle" fill="#e1ed5e" style="dominant-baseline: central; font-size:9.0px; font-family:Arial;" text-anchor="middle" x="100.0" y="100.0">2021</text><line stroke="#e1ed5e" stroke-width="0.3" x1="100.0" x2="100.0" y1="15.0" y2="10.0" /><path d="M 100.0 14.0 a86.0,86.0 0 0,1 42.46469731375804,11.215312516191453" fill="none" id="id25" stroke="none" /><text fill="#e1ed5e" style="font-size:6.75px; font-family:Arial;" text-anchor="middle"><textPath startOffset="22.20632615414155" xlink:href="#id25">January</textPath></text><line stroke="#e1ed5e" stroke-width="0.3" x1="143.23703022742887" x2="145.7803849466894" y1="26.81831364943548" y2="22.513508569990506" /><path d="M 143.74570117128098 25.957352633546492 a86.0,86.0 0 0,1 28.547481713284135,27.462654790039103" fill="none" id="id26" stroke="none" /><text fill="#e1ed5e" style="font-size:6.75px; font-family:Arial;" text-anchor="middle"><textPath startOffset="19.985693538727396" xlink:href="#id26">February</textPath></text><line stroke="#e1ed5e" stroke-width="0.3" x1="172.23445277983987" x2="176.4835382374775" y1="55.19839476539836" y2="52.563006222186495" /><path d="M 173.08426987136738 54.67131705675599 a86.0,86.0 0 0,1 12.851231095245387,41.99856678651699" fill="none" id="id27" stroke="none" /><text fill="#e1ed5e" style="font-size:6.75px; font-family:Arial;" text-anchor="middle"><textPath startOffset="22.20632615414155" xlink:href="#id27">March</textPath></text><path d="M 119.196687751892 91.48605970444005 l 38.22115044004333 -16.951496897795362 a62.811596334466714,62.811596334466714 0 0,0 0.42983856775591844,0.9921266778106483 l -38.50727971764193 16.29107107539811" fill="#57ff2a" stroke="none" /><path d="M 119.34039704204932 91.81776055985345 l 41.03148323383792 -17.35897250060003 a65.55240220959259,65.55240220959259 0 0,0 0.4307052322589091,1.0429868831475222 l -41.32421015298303 16.650111046999204" fill="#33ff2f" stroke="none" /><path d="M 119.7369772167798 92.82701384747503 l 42.91650493525332 -15.597094338925686 a66.66284865922154,66.66284865922154 0 0,0 0.38266671572909877,1.0818503358202893 l -43.178624731792226 14.856046376678782" fill="#31ff3c" stroke="none" /><path d="M 120.6074358757038 95.95851677861258 l 57.47806999768999 -11.272467709933505 a79.57300623094946,79.57300623094946 0 0,0 0.25203528122704094,1.3463825502887825 l -57.6635910028269 10.28140708218216" fill="#46fff5" stroke="none" /><path d="M 120.94382443527127 98.46500227214037 l 38.997847824180184 -2.8581985103312864 a60.1024479239136,60.1024479239136 0 0,0 0.06674064594159805,1.0324482526074197 l -39.041269061126194 2.1864911934708315" fill="#7cff26" stroke="none" /><line stroke="#e1ed5e" stroke-width="0.3" x1="184.98032266829074" x2="189.97916517819016" y1="98.17113171792111" y2="98.06355123074" /><path d="M 185.9800911702706 98.14961562048488 a86.0,86.0 0 0,1 -9.607161424134198,41.387399972396054" fill="none" id="id28" stroke="none" /><text fill="#e1ed5e" style="font-size:6.75px; font-family:Arial;" text-anchor="middle"><textPath startOffset="21.466115282336823" xlink:href="#id28">April</textPath></text><path d="M 120.95626037817324 101.35467743843564 l 56.857458547530385 3.6754418446409503 a77.97613066221217,77.97613066221217 0 0,0 -0.09811417686356683,1.3386899912269226 l -56.78576781200248 -4.6536049723646435" fill="#43ffe0" stroke="none" /><path d="M 120.8583938346157 102.4346265915055 l 41.70380578672474 4.867737915986667 a62.98692998440813,62.98692998440813 0 0,0 -0.13496746602251494,1.0758234998738156 l -41.61383681145538 -5.584879170147877" fill="#55ff2b" stroke="none" /><path d="M 120.81339534386255 102.79330883721812 l 15.729109545159554 2.1109607523513403 a36.87013050928054,36.87013050928054 0 0,0 -0.08983310555471898,0.6282925310199666 l -15.690442388588233 -2.381398755351716" fill="#ff0000" stroke="none" /><path d="M 119.41010516605496 108.01547362559984 l 38.59205081672064 15.93672794829601 a62.75315178448625,62.75315178448625 0 0,0 -0.4208914217111903,0.9948629916092059 l -38.31200841381714 -16.59866546557138" fill="#58ff2a" stroke="none" /><line stroke="#e1ed5e" stroke-width="0.3" x1="174.80103733775053" x2="179.2010983576182" y1="140.37084112569926" y2="142.7455964860345" /><path d="M 175.68104954172406 140.8457921977663 a86.0,86.0 0 0,1 -30.038265399797805,32.042727171017184" fill="none" id="id29" stroke="none" /><text fill="#e1ed5e" style="font-size:6.75px; font-family:Arial;" text-anchor="middle"><textPath startOffset="22.206326154141568" xlink:href="#id29">May</textPath></text><path d="M 116.93607887273984 112.41649034213515 l 28.223660503251512 20.69185026189188 a55.99610949038985,55.99610949038985 0 0,0 -0.5765965612478493,0.7724453198548645 l -27.86330267530857 -21.17460846125606" fill="#b7ff1f" stroke="none" /><path d="M 116.71984013943494 112.70617746262583 l 44.78951743805604 34.03761951593322 a77.25531454578638,77.25531454578638 0 0,0 -0.8137309005334163,1.051856880968707 l -44.196979720304554 -34.80355439101518" fill="#42ffd7" stroke="none" /><path d="M 112.92097659922987 116.55440617244103 l 26.749393889143352 34.27142893625272 a64.47483081932764,64.47483081932764 0 0,0 -0.880760795109876,0.6753298201232468 l -26.155504365539983 -34.72679809820334" fill="#41ff2d" stroke="none" /><path d="M 111.45004920935366 117.60387380957326 l 20.064503206242705 30.84816283635979 a57.799367376245655,57.799367376245655 0 0,0 -0.8386913842722387,0.535292522751983 l -19.530530019923535 -31.188969787935584" fill="#9dff22" stroke="none" /><line stroke="#e1ed5e" stroke-width="0.3" x1="143.8653032363475" x2="146.44561519142675" y1="172.8068346515853" y2="177.08958963109032" /><path d="M 144.38136562736335 173.6633856474863 a86.0,86.0 0 0,1 -40.68145358897372,12.25698825130547" fill="none" id="id30" stroke="none" /><text fill="#e1ed5e" style="font-size:6.75px; font-family:Arial;" text-anchor="middle"><textPath startOffset="21.466115282336833" xlink:href="#id30">June</textPath></text><path d="M 109.2508944713604 118.85261126421891 l 12.742622323976155 25.968484010320005 a49.926399455959626,49.926399455959626 0 0,0 -0.7747800530979674,0.3719415087933131 l -12.293729602877955 -26.183979795612878" fill="#ffe815" stroke="none" /><path d="M 108.92500713936063 119.00905698771935 l 16.586987491090987 35.328037899510775 a60.02817464164676,60.02817464164676 0 0,0 -0.9391036440687418,0.43109642286688443 l -15.976415851254826 -35.60832139271174" fill="#7dff26" stroke="none" /><path d="M 108.59647513512805 119.15986991738527 l 16.20195528291417 36.111004888436135 a60.57913628469183,60.57913628469183 0 0,0 -0.9550714081405599,0.4186752383673746 l -15.577963200115857 -36.38454468009797" fill="#75ff27" stroke="none" /><path d="M 106.57524785965236 119.94407469862006 l 18.057695526848235 54.772692400289145 a78.67259488281282,78.67259488281282 0 0,0 -1.2897759592600078,0.4129455323726949 l -17.112198222497288 -55.075410779321544" fill="#44ffea" stroke="none" /><path d="M 105.88484417918355 120.15858648285463 l 16.150199756250654 55.3226540225785 a78.6318054573056,78.6318054573056 0 0,0 -1.3025502054408946,0.3681136988799304 l -15.195518382705153 -55.59245651479695" fill="#44ffe9" stroke="none" /><path d="M 105.53697534728816 120.25689768951611 l 15.228424750089664 55.7128437073764 a78.75660892340974,78.75660892340974 0 0,0 -1.31077083383281,0.3461864906259653 l -14.267163473445356 -55.96672154730595" fill="#44ffeb" stroke="none" /><line stroke="#e1ed5e" stroke-width="0.3" x1="102.19456741930631" x2="102.32365962044197" y1="184.97166512339345" y2="189.96999836594603" /><path d="M 102.22038585953345 185.97133177190398 a86.0,86.0 0 0,1 -42.740103519485714,-10.115201625700543" fill="none" id="id31" stroke="none" /><text fill="#e1ed5e" style="font-size:6.75px; font-family:Arial;" text-anchor="middle"><textPath startOffset="22.20632615414155" xlink:href="#id31">July</textPath></text><path d="M 90.7491055286396 118.85261126421891 l -23.498785845205926 47.8887177982963 a74.34343660248851,74.34343660248851 0 0,0 -1.143990048929933,-0.5736203593773158 l 24.31962980181862 -47.477129598009675" fill="#3dffaf" stroke="none" /><path d="M 90.10565033884886 118.52300852407294 l -25.481778754916157 47.703913976185355 a75.08312543817885,75.08312543817885 0 0,0 -1.1347462489373024,-0.6187541310557609 l 26.299147815722097 -47.258219193369825" fill="#3effb9" stroke="none" /><line stroke="#e1ed5e" stroke-width="0.3" x1="58.666819895761336" x2="56.23545636021788" y1="174.27360380694188" y2="178.64263932499728" /><path d="M 58.180547188652646 175.14741091055294 a86.0,86.0 0 0,1 -31.652253787137756,-30.449443065178592" fill="none" id="id32" stroke="none" /><text fill="#e1ed5e" style="font-size:6.75px; font-family:Arial;" text-anchor="middle"><textPath startOffset="22.20632615414155" xlink:href="#id32">August</textPath></text><path d="M 85.70375840098266 115.38237550388516 l -32.41561864465272 34.878343005693374 a68.6158707044023,68.6158707044023 0 0,0 -0.8582347821961627,-0.8115145548806248 l 33.0111892612397 -34.315193814066824" fill="#34ff5b" stroke="none" /><path d="M 84.9287848128048 114.62390073753433 l -34.97455902809665 33.93651229931817 a69.73301392538318,69.73301392538318 0 0,0 -0.8284728631896681,-0.8686504848635074 l 35.55353844266528 -33.329454697872166" fill="#36ff6c" stroke="none" /><path d="M 84.19399662182784 113.82643327865904 l -14.103144539561917 12.336843307576657 a39.737566242697426,39.737566242697426 0 0,0 -0.445926435072334,-0.5187131871766222 l 14.31341348420503 -12.092253021238504" fill="#ff3605" stroke="none" /><path d="M 83.28015986056508 112.70617746262583 l -26.180375480112133 19.89567448697661 a53.8823649327628,53.8823649327628 0 0,0 -0.5548311590730379,-0.7432870067905093 l 26.518967905880253 -19.442074600676793" fill="#d7ff1c" stroke="none" /><path d="M 82.24976979558568 111.22182372390057 l -15.262089113407146 9.648802957300461 a39.05632195698756,39.05632195698756 0 0,0 -0.35436239891995003,-0.5713450185031411 l 15.425916151995052 -9.384661607432056" fill="#ff2a04" stroke="none" /><line stroke="#e1ed5e" stroke-width="0.3" x1="26.63291911575756" x2="22.317208475507996" y1="142.92168965132927" y2="145.44649492493687" /><path d="M 25.769776987707644 143.4266507060508 a86.0,86.0 0 0,1 -11.730757126820373,-40.83630448921669" fill="none" id="id33" stroke="none" /><text fill="#e1ed5e" style="font-size:6.75px; font-family:Arial;" text-anchor="middle"><textPath startOffset="21.46611528233685" xlink:href="#id33">September</textPath></text><path d="M 81.87401531095188 110.60418214915194 l -40.24273372097436 23.543067363113888 a67.62353094952553,67.62353094952553 0 0,0 -0.5791408121142908,-1.009780821845608 l 40.64202652924103 -22.84686669540997" fill="#32ff4b" stroke="none" /><path d="M 81.02952815118164 109.00673069616217 l -29.390997580093003 13.954149491117708 a53.535350417253746,53.535350417253746 0 0,0 -0.38806853475621883,-0.835865099667313 l 29.62684073168905 -13.446164324171567" fill="#ddff1b" stroke="none" /><path d="M 80.73074385275274 108.34839909993369 l -43.49211505863182 18.842945022637213 a68.39853003416242,68.39853003416242 0 0,0 -0.4587555163428726,-1.0843625264457621 l 43.810021556166994 -18.091507970525292" fill="#34ff57" stroke="none" /><path d="M 79.86692584326677 105.97154293290107 l -38.52830438231818 11.427635042706523 a61.18732488292611,61.18732488292611 0 0,0 -0.2908069310741965,-1.0123370773544904 l 38.71930395027848 -10.762740489847436" fill="#6dff28" stroke="none" /><line stroke="#e1ed5e" stroke-width="0.3" x1="15.007084014347285" x2="10.007500721073583" y1="101.09737516637583" y2="101.16192664675087" /><path d="M 14.007167355692545 101.11028546245083 a86.0,86.0 0 0,1 10.666146001902534,-42.60595125391555" fill="none" id="id34" stroke="none" /><text fill="#e1ed5e" style="font-size:6.75px; font-family:Arial;" text-anchor="middle"><textPath startOffset="22.20632615414155" xlink:href="#id34">October</textPath></text><line stroke="#e1ed5e" stroke-width="0.3" x1="26.266209847984243" x2="21.928928074336255" y1="57.711370442889674" y2="55.22380399835377" /><path d="M 25.398753493254645 57.213857153982495 a86.0,86.0 0 0,1 29.58750427330803,-30.492523968695096" fill="none" id="id35" stroke="none" /><text fill="#e1ed5e" style="font-size:6.75px; font-family:Arial;" text-anchor="middle"><textPath startOffset="21.46611528233685" xlink:href="#id35">November</textPath></text><path d="M 86.65592168130627 83.78471172551755 l -13.075514109979915 -15.888937816961372 a41.57735197229102,41.57735197229102 0 0,0 0.5565358255285032,-0.4500132664383223 l 12.800074885886911 16.11165718066383" fill="#ff5808" stroke="none" /><path d="M 88.70189139769569 82.29822771554957 l -13.166953120171245 -20.62986062691659 a45.473655304322456,45.473655304322456 0 0,0 0.6634408122319426,-0.4154465757554673 l 12.809893155567059 20.85345154399499" fill="#ff9d0e" stroke="none" /><line stroke="#e1ed5e" stroke-width="0.3" x1="56.762969772571076" x2="54.21961505331055" y1="26.818313649435495" y2="22.513508569990535" /><path d="M 56.25429882871897 25.957352633546506 a86.0,86.0 0 0,1 42.265352541879196,-11.944610805530505" fill="none" id="id36" stroke="none" /><text fill="#e1ed5e" style="font-size:6.75px; font-family:Arial;" text-anchor="middle"><textPath startOffset="22.20632615414155" xlink:href="#id36">December</textPath></text><path d="M 91.23893434514133 80.91482961587045 l -15.992944290476508 -34.8391484269227 a59.334586605198126,59.334586605198126 0 0,0 0.9318860788464833,-0.4181101197512195 l 15.39087609316325 35.10927887719045" fill="#87ff25" stroke="none" /><path d="M 91.56875222667455 80.76684994638697 l -14.998341978715699 -34.213839942491205 a58.35688833027869,58.35688833027869 0 0,0 0.9234734208080394,-0.39538312467881087 l 14.40718480011735 34.46694259513281" fill="#95ff23" stroke="none" /><path d="M 91.90106846888425 80.62456947434976 l -14.002307800198796 -33.49833752010324 a57.30706873795053,57.30706873795053 0 0,0 0.9134095377714044,-0.37260268480460024 l 13.42361439283901 33.73440109109142" fill="#a4ff21" stroke="none" /><path d="M 93.25333710446033 80.11325718540243 l -10.232882768673534 -30.16286881727471 a52.85138215282876,52.85138215282876 0 0,0 0.8640374933950985,-0.28485957683955626 l 9.712162453036026 30.3345421183735" fill="#e7ff1a" stroke="none" /><path d="M 93.94186890950719 79.89281104454417 l -14.298313538894252 -47.45669708634713 a70.56389682421909,70.56389682421909 0 0,0 1.1660172606456776,-0.34039241268104353 l 13.479306060525154 47.695787827946866" fill="#37ff78" stroke="none" /><path d="M 94.98787191387505 79.60689891045804 l -7.599409238640208 -30.920103828433046 a52.840286455014976,52.840286455014976 0 0,0 0.885141007094701,-0.20948427862035057 l 7.066044544582972 31.04633401919427" fill="#e8ff1a" stroke="none" /><path d="M 98.19473922651362 79.07773832637324 l -5.415782320459142 -62.766785020880285 a84.0,84.0 0 0,0 1.4416392425506632,-0.11189895124615123 l 4.334552888546145 62.8507092343149" fill="#4dd2ff" stroke="none" /><path d="M 98.91598698831166 79.02799685794201 l -2.8667619619685256 -55.462194849762305 a76.53623485346833,76.53623485346833 0 0,0 1.3162744224635154,-0.056681545488084475 l 1.911646707115686 55.50332412177458" fill="#41ffcd" stroke="none" /><path d="M 99.27714615592234 79.0124445844662 l -0.7180880541544649 -20.84918404083424 a41.86154657790492,41.86154657790492 0 0,0 0.7203641877525618,-0.01860488168828 l 0.3590972312070241 20.858455714664878" fill="#ff5d08" stroke="none" /></svg>