<?xml version="1.0" encoding="utf-8" ?>
<svg baseProfile="full" height="200mm" version="1.1" viewBox="0,0,200,200" width="200mm" xmlns="http://www.w3.org/2000/svg" xmlns:ev="http://www.w3.org/2001/xml-events" xmlns:xlink="http://www.w3.org/1999/xlink"><defs /><rect fill="#1a1a1a" height="200" width="200" x="0" y="0" /><text alignment-baseline="middle" fill="#e1ed5e" style="dominant-baseline: central; font-size:9.0px; font-family:Arial;" text-anchor="middle" x="100.0" y="100.0">2020</text><line stroke="#e1ed5e" stroke-width="0.3" x1="100.0" x2="100.0" y1="15.0" y2="10.0" /><path d="M 100.0 14.0 a86.0,86.0 0 0,1 42.35913384403234,11.155469271406648" fill="none" id="id13" stroke="none" /><text fill="#e1ed5e" style="font-size:6.75px; font-family:Arial;" text-anchor="middle"><textPath startOffset="22.145653131862478" xlink:href="#id13">January</textPath></text><line stroke="#e1ed5e" stroke-width="0.3" x1="143.13028292997686" x2="145.6673583964461" y1="26.7553504044142" y2="22.446841604673864" /><path d="M 143.63769802327073 25.89364864446614 a86.0,86.0 0 0,1 29.32050498858742,28.57503671076993" fill="none" id="id14" stroke="none" /><text fill="#e1ed5e" style="font-size:6.75px; font-family:Arial;" text-anchor="middle"><textPath startOffset="20.669276256404974" xlink:href="#id14">February</textPath></text><line stroke="#e1ed5e" stroke-width="0.3" x1="172.87174338648825" x2="177.1583165268699" y1="56.24261187166439" y2="53.66864786411523" /><path d="M 173.72905801456457 55.72781907015455 a86.0,86.0 0 0,1 12.242430191666344,42.057860355516425" fill="none" id="id15" stroke="none" /><text fill="#e1ed5e" style="font-size:6.75px; font-family:Arial;" text-anchor="middle"><textPath startOffset="22.145653131862474" xlink:href="#id15">March</textPath></text><line stroke="#e1ed5e" stroke-width="0.3" x1="184.99686870605535" x2="189.99668451229388" y1="99.2704041080226" y2="99.22748670261217" /><path d="M 185.99683186730306 99.26182062694052 a86.0,86.0 0 0,1 -10.086455211305974,41.156179273409016" fill="none" id="id16" stroke="none" /><text fill="#e1ed5e" style="font-size:6.75px; font-family:Arial;" text-anchor="middle"><textPath startOffset="21.40746469413373" xlink:href="#id16">April</textPath></text><line stroke="#e1ed5e" stroke-width="0.3" x1="174.33088141563837" x2="178.70328620479359" y1="141.23008692659167" y2="143.65538615756765" /><path d="M 175.20536237346943 141.71514677278685 a86.0,86.0 0 0,1 -30.301960400862466,31.631185727798858" fill="none" id="id17" stroke="none" /><text fill="#e1ed5e" style="font-size:6.75px; font-family:Arial;" text-anchor="middle"><textPath startOffset="22.145653131862474" xlink:href="#id17">May</textPath></text><path d="M 118.18653347947321 110.5 l 12.294435590019612 7.098195697432335 a35.196391394864676,35.196391394864676 0 0,0 -0.3065878711753927,0.5206532317665562 l -12.170774008714455 -7.308200097492441" fill="#ff0b01" stroke="none" /><line stroke="#e1ed5e" stroke-width="0.3" x1="143.1302829299769" x2="145.66735839644613" y1="173.24464959558577" y2="177.55315839532614" /><path d="M 143.63769802327073 174.10635135553383 a86.0,86.0 0 0,1 -40.68552437913181,11.842963189579606" fill="none" id="id18" stroke="none" /><text fill="#e1ed5e" style="font-size:6.75px; font-family:Arial;" text-anchor="middle"><textPath startOffset="21.407464694133747" xlink:href="#id18">June</textPath></text><line stroke="#e1ed5e" stroke-width="0.3" x1="101.45913802915013" x2="101.54496967792366" y1="184.9874750549273" y2="189.98673829345242" /><path d="M 101.47630435890484 185.9873277026323 a86.0,86.0 0 0,1 -42.54439059252881,-10.42667462771756" fill="none" id="id19" stroke="none" /><text fill="#e1ed5e" style="font-size:6.75px; font-family:Arial;" text-anchor="middle"><textPath startOffset="22.145653131862474" xlink:href="#id19">July</textPath></text><path d="M 99.63950707515114 120.99690560180557 l -0.23360639960039034 13.60640163033346 a34.608406860315256,34.608406860315256 0 0,0 -0.593924240651445,-0.015297381644857319 l 0.46714395432257927 -13.600386531338556" fill="#ff0000" stroke="none" /><line stroke="#e1ed5e" stroke-width="0.3" x1="58.13341422392154" x2="55.67067388415222" y1="173.97424548756322" y2="178.32567169271397" /><path d="M 57.64086615596768 174.84453072859336 a86.0,86.0 0 0,1 -31.369924170532247,-30.572349798747897" fill="none" id="id20" stroke="none" /><text fill="#e1ed5e" style="font-size:6.75px; font-family:Arial;" text-anchor="middle"><textPath startOffset="22.145653131862474" xlink:href="#id20">August</textPath></text><line stroke="#e1ed5e" stroke-width="0.3" x1="26.387840678322732" x2="22.057713659400548" y1="142.50000000000003" y2="145.00000000000006" /><path d="M 25.521815274538298 143.00000000000003 a86.0,86.0 0 0,1 -11.493303480769221,-40.785679425670985" fill="none" id="id21" stroke="none" /><text fill="#e1ed5e" style="font-size:6.75px; font-family:Arial;" text-anchor="middle"><textPath startOffset="21.40746469413373" xlink:href="#id21">September</textPath></text><path d="M 80.5471966667186 107.91128576633889 l -58.35840999984417 23.733857299016694 a84.0,84.0 0 0,0 -0.5317653001355023,-1.3403959311457387 l 58.7572339749458 -22.72856035065739" fill="#4dd2ff" stroke="none" /><path d="M 79.94057633289273 106.21446072829308 l -51.07086254177521 15.821883763606895 a74.46554971745812,74.46554971745812 0 0,0 -0.3678019452213062,-1.2242930545420816 l 51.33494080700015 -14.94285310547409" fill="#3effb7" stroke="none" /><path d="M 79.83685265289637 105.86919833188381 l -29.059501812563656 8.458797459920007 a51.2655893724596,51.2655893724596 0 0,0 -0.23870603016784475,-0.8470834899374419 l 29.200426334806075 -7.95870604607957" fill="#e9ff1a" stroke="none" /><path d="M 79.48165901384964 104.47187691870673 l -35.1542480533578 7.6617047435956716 a56.97947853673045,56.97947853673045 0 0,0 -0.20008558015868388,-0.9574819328546812 l 35.28059134434085 -7.057106359455581" fill="#97ff23" stroke="none" /><path d="M 79.34024301695615 103.76489593502545 l -35.29032572673292 6.431072930013031 a56.87151779518192,56.87151779518192 0 0,0 -0.1667829906147582,-0.9619599690109102 l 35.39552353483991 -5.824319928081529" fill="#98ff23" stroke="none" /><path d="M 79.22317932658666 103.0534771498775 l -33.51909775482635 4.926153076434948 a54.879151382968175,54.879151382968175 0 0,0 -0.12898033559743194,-0.9332374569007321 l 33.598722606978995 -4.350027311334131" fill="#b4ff20" stroke="none" /><path d="M 79.17382384314188 102.69636545807758 l -26.011115055035543 3.3676596045397305 a47.228214533558045,47.228214533558045 0 0,0 -0.09719547151531052,-0.8049179337704112 l 26.065092612810517 -2.92064799384592" fill="#ffd714" stroke="none" /><path d="M 79.0935383218832 101.97986365728391 l -38.631460217945786 3.658439447617216 a59.80430256766135,59.80430256766135 0 0,0 -0.08801592092641003,-1.0228784170800767 l 38.68856976156994 -2.9947399831614776" fill="#71ff27" stroke="none" /><path d="M 79.06263194458094 101.62068470465958 l -35.55903978016682 2.7524945700699854 a56.665410924952916,56.665410924952916 0 0,0 -0.06674656215414876,-0.9704803648645538 l 35.60105030348603 -2.141670781051088" fill="#9bff22" stroke="none" /><line stroke="#e1ed5e" stroke-width="0.3" x1="15.003131293944662" x2="10.003315487706104" y1="100.72959589197737" y2="100.7725132973878" /><path d="M 14.003168132696942 100.73817937305945 a86.0,86.0 0 0,1 10.791469493833604,-42.45332614584628" fill="none" id="id22" stroke="none" /><text fill="#e1ed5e" style="font-size:6.75px; font-family:Arial;" text-anchor="middle"><textPath startOffset="22.145653131862435" xlink:href="#id22">October</textPath></text><path d="M 79.01933749520258 99.09900007780938 l -32.970801062114276 -1.4159080622327704 a54.00118965004461,54.00118965004461 0 0,0 0.047722678445672975,-0.925807212629982 l 32.94163679421203 1.9816870682394643" fill="#c1ff1e" stroke="none" /><path d="M 79.13060592940154 97.66154086499901 l -28.62052862145523 -3.2069899287440147 a49.79964310498662,49.79964310498662 0 0,0 0.10248746095288644,-0.8487431978205195 l 28.561259074242674 3.6978268034879704" fill="#ffff18" stroke="none" /><path d="M 79.34024301695615 96.23510406497455 l -31.480754200167873 -5.736842094368393 a52.99920689997026,52.99920689997026 0 0,0 0.17079299223933128,-0.8936611056451489 l 31.377634915646382 6.2764057650468565" fill="#cfff1d" stroke="none" /><path d="M 79.407916724674 95.88100663000787 l -39.867724398733394 -7.974661440487821 a61.657479924655505,61.657479924655505 0 0,0 0.2165125578307021,-1.0360909676481467 l 39.72495413007833 8.657868859421376" fill="#59ff2a" stroke="none" /><path d="M 79.73907114497095 94.47779374421319 l -38.80219383394899 -10.575710475134498 a61.21760682066026,61.21760682066026 0 0,0 0.2850452336433101,-1.0115249754471412 l 38.61493010823109 11.240243374484653" fill="#5eff29" stroke="none" /><path d="M 80.05021161711548 93.44210830539832 l -28.664700400758637 -9.422656375024703 a51.173688906513334,51.173688906513334 0 0,0 0.2814908143153729,-0.8321775748835464 l 28.498724164870897 9.91333562438241" fill="#eaff1a" stroke="none" /><path d="M 80.5471966667186 92.08871423366112 l -45.528634780997024 -18.516099409050263 a70.1497967681174,70.1497967681174 0 0,0 0.463236372512207,-1.1115986587491318 l 45.20407256394834 19.29493057724066" fill="#37ff7b" stroke="none" /><path d="M 80.68587082218212 91.75594674310238 l -46.57531036038222 -19.880230453698722 a71.64072568652722,71.64072568652722 0 0,0 0.49249968842145486,-1.1269356687162997 l 46.22717678994379 20.67682819219089" fill="#3aff90" stroke="none" /><line stroke="#e1ed5e" stroke-width="0.3" x1="26.387840678322718" x2="22.05771365940052" y1="57.49999999999999" y2="54.99999999999999" /><path d="M 25.521815274538284 56.99999999999999 a86.0,86.0 0 0,1 29.574782752854787,-30.34633250058573" fill="none" id="id23" stroke="none" /><text fill="#e1ed5e" style="font-size:6.75px; font-family:Arial;" text-anchor="middle"><textPath startOffset="21.40746469413373" xlink:href="#id23">November</textPath></text><path d="M 81.81346652052679 89.5 l -29.660876409936073 -17.124714979676817 a55.24942995935363,55.24942995935363 0 0,0 0.48126539237662735,-0.8172938509199659 l 29.362537307429665 17.631359998890357" fill="#afff20" stroke="none" /><path d="M 82.18462484594161 88.88188828441811 l -34.30258909905046 -21.40735260632809 a61.43442054129078,61.43442054129078 0 0,0 0.5660225476168945,-0.8898814587000169 l 33.93004885980768 21.99304773970678" fill="#5cff2a" stroke="none" /><path d="M 82.98947788004972 87.6856937992154 l -21.81718893773907 -15.793962297288644 a47.93397442252404,47.93397442252404 0 0,0 0.48823715820470376,-0.6623874737659121 l 21.542849759950546 16.16615608032342" fill="#ffe215" stroke="none" /><path d="M 83.2033758604659 87.39550010848427 l -26.342836757182056 -19.768155808559268 a53.93516407256866,53.93516407256866 0 0,0 0.5620763813501279,-0.7357760260815495 l 25.999608398477623 20.2174527478817" fill="#c2ff1e" stroke="none" /><line stroke="#e1ed5e" stroke-width="0.3" x1="56.869717070023135" x2="54.33264160355391" y1="26.7553504044142" y2="22.446841604673864" /><path d="M 56.362301976729285 25.89364864446614 a86.0,86.0 0 0,1 42.16139366436587,-11.88097634709845" fill="none" id="id24" stroke="none" /><text fill="#e1ed5e" style="font-size:6.75px; font-family:Arial;" text-anchor="middle"><textPath startOffset="22.145653131862474" xlink:href="#id24">December</textPath></text></svg>