<?xml version="1.0" encoding="utf-8" ?>
<svg baseProfile="full" height="200mm" version="1.1" viewBox="0,0,200,200" width="200mm" xmlns="http://www.w3.org/2000/svg" xmlns:ev="http://www.w3.org/2001/xml-events" xmlns:xlink="http://www.w3.org/1999/xlink"><defs /><rect fill="#1a1a1a" height="200" width="200" x="0" y="0" /><text alignment-baseline="middle" fill="#e1ed5e" style="dominant-baseline: central; font-size:9.0px; font-family:Arial;" text-anchor="middle" x="100.0" y="100.0">2023</text><line stroke="#e1ed5e" stroke-width="0.3" x1="100.0" x2="100.0" y1="15.0" y2="10.0" /><path d="M 100.0 14.0 a86.0,86.0 0 0,1 42.46469731375804,11.215312516191453" fill="none" id="id49" stroke="none" /><text fill="#e1ed5e" style="font-size:6.75px; font-family:Arial;" text-anchor="middle"><textPath startOffset="22.20632615414155" xlink:href="#id49">January</textPath></text><line stroke="#e1ed5e" stroke-width="0.3" x1="143.23703022742887" x2="145.7803849466894" y1="26.81831364943548" y2="22.513508569990506" /><path d="M 143.74570117128098 25.957352633546492 a86.0,86.0 0 0,1 28.547481713284135,27.462654790039103" fill="none" id="id50" stroke="none" /><text fill="#e1ed5e" style="font-size:6.75px; font-family:Arial;" text-anchor="middle"><textPath startOffset="19.985693538727396" xlink:href="#id50">February</textPath></text><line stroke="#e1ed5e" stroke-width="0.3" x1="172.23445277983987" x2="176.4835382374775" y1="55.19839476539836" y2="52.563006222186495" /><path d="M 173.08426987136738 54.67131705675599 a86.0,86.0 0 0,1 12.851231095245387,41.99856678651699" fill="none" id="id51" stroke="none" /><text fill="#e1ed5e" style="font-size:6.75px; font-family:Arial;" text-anchor="middle"><textPath startOffset="22.20632615414155" xlink:href="#id51">March</textPath></text><path d="M 119.85752413597 93.16781622104841 l 50.42641180865947 -17.349721467329676 a74.32762738853503,74.32762738853503 0 0,0 0.40583842399490144,1.2134052316551378 l -50.71758752642614 16.479143132752224" fill="#3fffbb" stroke="none" /><line stroke="#e1ed5e" stroke-width="0.3" x1="184.98032266829074" x2="189.97916517819016" y1="98.17113171792111" y2="98.06355123074" /><path d="M 185.9800911702706 98.14961562048488 a86.0,86.0 0 0,1 -9.607161424134198,41.387399972396054" fill="none" id="id52" stroke="none" /><text fill="#e1ed5e" style="font-size:6.75px; font-family:Arial;" text-anchor="middle"><textPath startOffset="21.466115282336823" xlink:href="#id52">April</textPath></text><path d="M 120.99513854157772 99.54816195383933 l 42.649509389073785 -0.9178634832014791 a63.6593849522293,63.6593849522293 0 0,0 0.01414751887917428,1.0957409283048702 l -42.65898991507068 0.18358629683614613" fill="#34ff2f" stroke="none" /><path d="M 120.9764740272857 100.99374915477107 l 57.67173400087394 2.7321673243558955 a78.73641520700637,78.73641520700637 0 0,0 -0.07578810806515375,1.353247581074585 l -57.616159541921256 -3.724486621765904" fill="#45fff0" stroke="none" /><path d="M 120.89721153311464 102.0752229133903 l 41.747628952027945 4.145798880567295 a62.9529757165605,62.9529757165605 0 0,0 -0.11636617290366895,1.0774062390871073 l -41.67008047762323 -4.863801441539194" fill="#3cff2e" stroke="none" /><path d="M 120.8583938346157 102.4346265915055 l 41.99287906851523 4.9014790326000135 a63.27796576433121,63.27796576433121 0 0,0 -0.1355910932059295,1.0807944221178887 l -41.902286466062456 -5.623591209005297" fill="#39ff2e" stroke="none" /><path d="M 120.64145759157962 103.86396538481128 l 30.94472496325235 5.792679396308192 a52.48223527070063,52.48223527070063 0 0,0 -0.1738663154937908,0.8865405969081707 l -30.840428714782895 -6.324483720284308" fill="#c2ff1e" stroke="none" /><path d="M 120.32669344350535 105.2749913415812 l 33.24227607587596 8.626721260005292 a55.34340167197452,55.34340167197452 0 0,0 -0.2472319510779825,0.920042062504468 l -33.08885604845619 -9.197654255685308" fill="#9bff22" stroke="none" /><path d="M 120.13307415673323 105.97154293290107 l 56.731468465034446 16.82675963681276 a80.17431329617834,80.17431329617834 0 0,0 -0.4038236133067268,1.3197189333642774 l -56.43341807922159 -17.800805542729094" fill="#47fdff" stroke="none" /><path d="M 119.26925614724726 108.34839909993367 l 53.09880561634713 23.005040652718293 a78.86808320063693,78.86808320063693 0 0,0 -0.550420034438527,1.2410518710135041 l -52.694944497177325 -23.915640860224485" fill="#45fff2" stroke="none" /><line stroke="#e1ed5e" stroke-width="0.3" x1="174.80103733775053" x2="179.2010983576182" y1="140.37084112569926" y2="142.7455964860345" /><path d="M 175.68104954172406 140.8457921977663 a86.0,86.0 0 0,1 -30.038265399797805,32.042727171017184" fill="none" id="id53" stroke="none" /><text fill="#e1ed5e" style="font-size:6.75px; font-family:Arial;" text-anchor="middle"><textPath startOffset="22.206326154141568" xlink:href="#id53">May</textPath></text><path d="M 116.93607887273984 112.41649034213515 l 50.80823661821952 37.24947102640542 a84.0,84.0 0 0,0 -0.8649549332196318,1.15874848196274 l -50.159520418304794 -38.11853238787748" fill="#4dd2ff" stroke="none" /><path d="M 115.56566222782051 114.09645910891815 l 17.745288696226513 16.07035619950811 a44.9405851910828,44.9405851910828 0 0,0 -0.5242075128252379,0.5689237229306228 l -17.466034775405554 -16.373431177240068" fill="#ffcf13" stroke="none" /><path d="M 111.1453310114006 117.79835938074945 l 22.730463351027748 36.29905250895782 a63.828672372611464,63.828672372611464 0 0,0 -0.9362170824509679,0.5751009980919504 l -22.10226706864447 -36.684941973878146" fill="#32ff2f" stroke="none" /><line stroke="#e1ed5e" stroke-width="0.3" x1="143.8653032363475" x2="146.44561519142675" y1="172.8068346515853" y2="177.08958963109032" /><path d="M 144.38136562736335 173.6633856474863 a86.0,86.0 0 0,1 -40.68145358897372,12.25698825130547" fill="none" id="id54" stroke="none" /><text fill="#e1ed5e" style="font-size:6.75px; font-family:Arial;" text-anchor="middle"><textPath startOffset="21.466115282336833" xlink:href="#id54">June</textPath></text><path d="M 109.2508944713604 118.85261126421891 l 18.712162090283076 38.13394681922942 a63.47755772292994,63.47755772292994 0 0,0 -0.9850729489612791,0.47289487828593874 l -18.052976473321564 -38.45039597401492" fill="#36ff2e" stroke="none" /><line stroke="#e1ed5e" stroke-width="0.3" x1="102.19456741930631" x2="102.32365962044197" y1="184.97166512339345" y2="189.96999836594603" /><path d="M 102.22038585953345 185.97133177190398 a86.0,86.0 0 0,1 -42.740103519485714,-10.115201625700543" fill="none" id="id55" stroke="none" /><text fill="#e1ed5e" style="font-size:6.75px; font-family:Arial;" text-anchor="middle"><textPath startOffset="22.20632615414155" xlink:href="#id55">July</textPath></text><line stroke="#e1ed5e" stroke-width="0.3" x1="58.666819895761336" x2="56.23545636021788" y1="174.27360380694188" y2="178.64263932499728" /><path d="M 58.180547188652646 175.14741091055294 a86.0,86.0 0 0,1 -31.652253787137756,-30.449443065178592" fill="none" id="id56" stroke="none" /><text fill="#e1ed5e" style="font-size:6.75px; font-family:Arial;" text-anchor="middle"><textPath startOffset="22.20632615414155" xlink:href="#id56">August</textPath></text><path d="M 89.4739219176387 118.17145234162733 l -15.74773773617596 27.185744160580498 a52.417446257961785,52.417446257961785 0 0,0 -0.7768568282914673,-0.45898070736331764 l 16.21336243549581 -26.910644880923428" fill="#c3ff1e" stroke="none" /><path d="M 87.95078237400918 117.19931262002967 l -30.244759390319217 43.17202062560496 a73.71213176751593,73.71213176751593 0 0,0 -1.0329269516753268,-0.7369659541088086 l 30.983413669843433 -42.64501040965193" fill="#3effb3" stroke="none" /><path d="M 87.36589467227662 116.77436683061367 l -6.768450336299254 8.986506434035965 a32.25029856687898,32.25029856687898 0 0,0 -0.44055638839739314,-0.3377998523349824 l 6.922135453190133 -8.868667239873615" fill="#ff0000" stroke="none" /><path d="M 87.07902340077011 116.55440617244103 l -19.202721293421558 24.60260224652288 a52.20949442675159,52.20949442675159 0 0,0 -0.7036907717384233,-0.5590545077864083 l 19.62336955787734 -24.268413824731343" fill="#c6ff1e" stroke="none" /><path d="M 85.70375840098266 115.38237550388516 l -32.533624642031285 35.00531431845522 a68.78921178343948,68.78921178343948 0 0,0 -0.8604029007624054,-0.8135646463121451 l 33.13136337718451 -34.44011503539714" fill="#36ff72" stroke="none" /><line stroke="#e1ed5e" stroke-width="0.3" x1="26.63291911575756" x2="22.317208475507996" y1="142.92168965132927" y2="145.44649492493687" /><path d="M 25.769776987707644 143.4266507060508 a86.0,86.0 0 0,1 -11.730757126820373,-40.83630448921669" fill="none" id="id57" stroke="none" /><text fill="#e1ed5e" style="font-size:6.75px; font-family:Arial;" text-anchor="middle"><textPath startOffset="21.46611528233685" xlink:href="#id57">September</textPath></text><line stroke="#e1ed5e" stroke-width="0.3" x1="15.007084014347285" x2="10.007500721073583" y1="101.09737516637583" y2="101.16192664675087" /><path d="M 14.007167355692545 101.11028546245083 a86.0,86.0 0 0,1 10.666146001902534,-42.60595125391555" fill="none" id="id58" stroke="none" /><text fill="#e1ed5e" style="font-size:6.75px; font-family:Arial;" text-anchor="middle"><textPath startOffset="22.20632615414155" xlink:href="#id58">October</textPath></text><line stroke="#e1ed5e" stroke-width="0.3" x1="26.266209847984243" x2="21.928928074336255" y1="57.711370442889674" y2="55.22380399835377" /><path d="M 25.398753493254645 57.213857153982495 a86.0,86.0 0 0,1 29.58750427330803,-30.492523968695096" fill="none" id="id59" stroke="none" /><text fill="#e1ed5e" style="font-size:6.75px; font-family:Arial;" text-anchor="middle"><textPath startOffset="21.46611528233685" xlink:href="#id59">November</textPath></text><line stroke="#e1ed5e" stroke-width="0.3" x1="56.762969772571076" x2="54.21961505331055" y1="26.818313649435495" y2="22.513508569990535" /><path d="M 56.25429882871897 25.957352633546506 a86.0,86.0 0 0,1 42.265352541879196,-11.944610805530505" fill="none" id="id60" stroke="none" /><text fill="#e1ed5e" style="font-size:6.75px; font-family:Arial;" text-anchor="middle"><textPath startOffset="22.20632615414155" xlink:href="#id60">December</textPath></text></svg>