<?xml version="1.0" encoding="utf-8" ?>
<svg baseProfile="full" height="200mm" version="1.1" viewBox="0,0,200,200" width="200mm" xmlns="http://www.w3.org/2000/svg" xmlns:ev="http://www.w3.org/2001/xml-events" xmlns:xlink="http://www.w3.org/1999/xlink"><defs /><rect fill="#1a1a1a" height="200" width="200" x="0" y="0" /><text alignment-baseline="middle" fill="#e1ed5e" style="dominant-baseline: central; font-size:9.0px; font-family:Arial;" text-anchor="middle" x="100.0" y="100.0">2022</text><line stroke="#e1ed5e" stroke-width="0.3" x1="100.0" x2="100.0" y1="15.0" y2="10.0" /><path d="M 100.0 14.0 a86.0,86.0 0 0,1 42.46469731375804,11.215312516191453" fill="none" id="id37" stroke="none" /><text fill="#e1ed5e" style="font-size:6.75px; font-family:Arial;" text-anchor="middle"><textPath startOffset="22.20632615414155" xlink:href="#id37">January</textPath></text><line stroke="#e1ed5e" stroke-width="0.3" x1="143.23703022742887" x2="145.7803849466894" y1="26.81831364943548" y2="22.513508569990506" /><path d="M 143.74570117128098 25.957352633546492 a86.0,86.0 0 0,1 28.547481713284135,27.462654790039103" fill="none" id="id38" stroke="none" /><text fill="#e1ed5e" style="font-size:6.75px; font-family:Arial;" text-anchor="middle"><textPath startOffset="19.985693538727396" xlink:href="#id38">February</textPath></text><line stroke="#e1ed5e" stroke-width="0.3" x1="172.23445277983987" x2="176.4835382374775" y1="55.19839476539836" y2="52.563006222186495" /><path d="M 173.08426987136738 54.67131705675599 a86.0,86.0 0 0,1 12.851231095245387,41.99856678651699" fill="none" id="id39" stroke="none" /><text fill="#e1ed5e" style="font-size:6.75px; font-family:Arial;" text-anchor="middle"><textPath startOffset="22.20632615414155" xlink:href="#id39">March</textPath></text><path d="M 119.47837535516314 92.15188598940014 l 31.314832752624405 -12.61719076587763 a54.761105626850934,54.761105626850934 0 0,0 0.3447510180704382,0.8773537371981456 l -31.527377320576544 12.076288023783702" fill="#bfff1e" stroke="none" /><path d="M 119.85752413597 93.16781622104841 l 52.01783601842851 -17.89726720349321 a76.01061204343533,76.01061204343533 0 0,0 0.415027737093542,1.240880108182225 l -52.31820104929382 16.999213992388672" fill="#40ffc9" stroke="none" /><path d="M 120.28053869075195 94.5502522615342 l 33.32303291787105 -8.954501951459543 a55.50518262586377,55.50518262586377 0 0,0 0.24000353250653214,0.9248315143501703 l -33.47223278224789 8.379574011560521" fill="#b5ff20" stroke="none" /><path d="M 120.83666639777658 97.38593545837742 l 43.55468601247269 -5.464154301518155 a64.89610069101678,64.89610069101678 0 0,0 0.12951298435257444,1.1095881576862108 l -43.64228934982886 4.713622405507092" fill="#36ff2f" stroke="none" /><path d="M 120.96714384426684 98.82574320788733 l 35.424745004405445 -1.983949160612865 a56.48025666337611,56.48025666337611 0 0,0 0.04600825702649443,0.971161589344163 l -35.453646869665434 1.373876464645702" fill="#a7ff21" stroke="none" /><line stroke="#e1ed5e" stroke-width="0.3" x1="184.98032266829074" x2="189.97916517819016" y1="98.17113171792111" y2="98.06355123074" /><path d="M 185.9800911702706 98.14961562048488 a86.0,86.0 0 0,1 -9.607161424134198,41.387399972396054" fill="none" id="id40" stroke="none" /><text fill="#e1ed5e" style="font-size:6.75px; font-family:Arial;" text-anchor="middle"><textPath startOffset="21.466115282336823" xlink:href="#id40">April</textPath></text><path d="M 120.9904718944345 100.63252640178507 l 62.97141568330351 1.8975792053552112 a84.0,84.0 0 0,0 -0.05599146859518722,1.4448910119439753 l -62.92942208185712 -2.9812474643131925" fill="#4dd2ff" stroke="none" /><path d="M 120.81339534386255 102.79330883721812 l 46.680445099415316 6.264854804668957 a68.09896347482724,68.09896347482724 0 0,0 -0.16592133766549236,1.1604534491860785 l -46.56568971073322 -7.067453725835445" fill="#34ff59" stroke="none" /><path d="M 120.49622156327973 104.57218783832717 l 57.39035977529466 12.802335503238707 a79.8009624876604,79.8009624876604 0 0,0 -0.3106135958065973,1.3381152412217459 l -57.16148561355751 -13.788319401809018" fill="#46fff9" stroke="none" /><line stroke="#e1ed5e" stroke-width="0.3" x1="174.80103733775053" x2="179.2010983576182" y1="140.37084112569926" y2="142.7455964860345" /><path d="M 175.68104954172406 140.8457921977663 a86.0,86.0 0 0,1 -30.038265399797805,32.042727171017184" fill="none" id="id41" stroke="none" /><text fill="#e1ed5e" style="font-size:6.75px; font-family:Arial;" text-anchor="middle"><textPath startOffset="22.206326154141568" xlink:href="#id41">May</textPath></text><path d="M 117.14729908036423 112.12312394758627 l 32.182924359864266 22.75329655019585 a60.41386969397828,60.41386969397828 0 0,0 -0.6076490523883509,0.8439713872794086 l -31.786495515100313 -23.30390154292639" fill="#70ff27" stroke="none" /><path d="M 116.0416608686014 113.55231037782055 l 13.126460581363842 11.089491881047314 a38.183736426456065,38.183736426456065 0 0,0 -0.42848969054616554,0.49843031400341753 l -12.933628381246898 -11.31379929421226" fill="#ff2e04" stroke="none" /><path d="M 112.34349029814194 116.9893568818739 l 26.347851091378317 36.26470588543978 a65.82564165844028,65.82564165844028 0 0,0 -0.9224136888995714,0.6581176754274161 l -25.71971007462986 -36.71286782271142" fill="#30ff36" stroke="none" /><line stroke="#e1ed5e" stroke-width="0.3" x1="143.8653032363475" x2="146.44561519142675" y1="172.8068346515853" y2="177.08958963109032" /><path d="M 144.38136562736335 173.6633856474863 a86.0,86.0 0 0,1 -40.68145358897372,12.25698825130547" fill="none" id="id42" stroke="none" /><text fill="#e1ed5e" style="font-size:6.75px; font-family:Arial;" text-anchor="middle"><textPath startOffset="21.466115282336833" xlink:href="#id42">June</textPath></text><line stroke="#e1ed5e" stroke-width="0.3" x1="102.19456741930631" x2="102.32365962044197" y1="184.97166512339345" y2="189.96999836594603" /><path d="M 102.22038585953345 185.97133177190398 a86.0,86.0 0 0,1 -42.740103519485714,-10.115201625700543" fill="none" id="id43" stroke="none" /><text fill="#e1ed5e" style="font-size:6.75px; font-family:Arial;" text-anchor="middle"><textPath startOffset="22.20632615414155" xlink:href="#id43">July</textPath></text><path d="M 99.09653310690486 120.98055641714683 l -1.1161147910750813 25.918724328614612 a46.94274432379072,46.94274432379072 0 0,0 -0.8069948001096865,-0.041712413342594526 l 1.5620976595982567 -25.895672108509817" fill="#ffc512" stroke="none" /><path d="M 96.93821686468263 120.77559828337769 l -2.5960496937249657 17.615383969683116 a38.80565153010859,38.80565153010859 0 0,0 -0.659999381707622,-0.10307832984989677 l 2.8988849390411047 -17.568087332486115" fill="#ff3905" stroke="none" /><path d="M 94.11515582081647 120.15858648285463 l -13.234986342272157 45.33656434334151 a68.22889930898322,68.22889930898322 0 0,0 -1.1245585484397957,-0.33882026575047286 l 14.013419865152198 -45.102028708485314" fill="#34ff5a" stroke="none" /><line stroke="#e1ed5e" stroke-width="0.3" x1="58.666819895761336" x2="56.23545636021788" y1="174.27360380694188" y2="178.64263932499728" /><path d="M 58.180547188652646 175.14741091055294 a86.0,86.0 0 0,1 -31.652253787137756,-30.449443065178592" fill="none" id="id44" stroke="none" /><text fill="#e1ed5e" style="font-size:6.75px; font-family:Arial;" text-anchor="middle"><textPath startOffset="22.20632615414155" xlink:href="#id44">August</textPath></text><path d="M 87.36589467227662 116.77436683061367 l -21.244886851587573 28.206945888081158 a56.312561697926945,56.312561697926945 0 0,0 -0.7692598179082514,-0.5898356254506203 l 21.72727539798931 -27.83707092080317" fill="#a9ff21" stroke="none" /><path d="M 83.95833913139862 113.55231037782056 l -25.844866645850793 21.834251286505964 a54.83329220138203,54.83329220138203 0 0,0 -0.6029155480145556,-0.7262506172002954 l 26.216878193758884 -21.386139412191906" fill="#beff1e" stroke="none" /><path d="M 83.72743513129214 113.27417163493432 l -29.42847804339316 24.005967814827727 a58.97791214215202,58.97791214215202 0 0,0 -0.6349452152258428,-0.7921917832841852 l 29.837341170673863 -23.49584819796528" fill="#83ff25" stroke="none" /><path d="M 83.50135304334701 112.99209946851258 l -38.59999337341322 30.396126101061032 a70.13129318854887,70.13129318854887 0 0,0 -0.7386935215708534,-0.9548609535191177 l 39.11749371220214 -29.727187153428662" fill="#37ff77" stroke="none" /><path d="M 83.28015986056508 112.70617746262583 l -39.841662504026125 30.277516409275357 a71.04084402764066,71.04084402764066 0 0,0 -0.7315134345451928,-0.9799817877902666 l 40.356937205266405 -29.58722174197578" fill="#38ff84" stroke="none" /><path d="M 82.6465618267979 111.8261652097733 l -36.560972890752275 24.915875535475866 a65.24370681145113,65.24370681145113 0 0,0 -0.6244658314568788,-0.9334916893913958 l 36.98444182761988 -24.282846931878648" fill="#31ff2f" stroke="none" /><path d="M 82.44556493220864 111.52570212397912 l -37.119052236139304 24.37122798574854 a65.40473840078974,65.40473840078974 0 0,0 -0.6098061757605341,-0.946432726799438 l 37.53306327527688 -23.728673659027653" fill="#2fff2f" stroke="none" /><path d="M 82.05923443525364 110.91462005526583 l -53.5632802121222 32.58628235897788 a83.6968163869694,83.6968163869694 0 0,0 -0.7382024303828738,-1.237269734646162 l 54.116263518203304 -31.65945053044561" fill="#4dd6ff" stroke="none" /><line stroke="#e1ed5e" stroke-width="0.3" x1="26.63291911575756" x2="22.317208475507996" y1="142.92168965132927" y2="145.44649492493687" /><path d="M 25.769776987707644 143.4266507060508 a86.0,86.0 0 0,1 -11.730757126820373,-40.83630448921669" fill="none" id="id45" stroke="none" /><text fill="#e1ed5e" style="font-size:6.75px; font-family:Arial;" text-anchor="middle"><textPath startOffset="21.46611528233685" xlink:href="#id45">September</textPath></text><path d="M 81.18737489456691 109.33194174019688 l -39.6213225298198 19.654028687949904 a65.22815893385982,65.22815893385982 0 0,0 -0.49028821260606176,-1.0101389365401376 l 39.95376399904058 -18.969100795444483" fill="#32ff2f" stroke="none" /><path d="M 80.87730276802145 108.67885076344099 l -40.201553892055585 18.24550597936133 a65.14819842053308,65.14819842053308 0 0,0 -0.4546690139154606,-1.0251585972651942 l 40.50966399070232 -17.55079904560344" fill="#33ff2f" stroke="none" /><line stroke="#e1ed5e" stroke-width="0.3" x1="15.007084014347285" x2="10.007500721073583" y1="101.09737516637583" y2="101.16192664675087" /><path d="M 14.007167355692545 101.11028546245083 a86.0,86.0 0 0,1 10.666146001902534,-42.60595125391555" fill="none" id="id46" stroke="none" /><text fill="#e1ed5e" style="font-size:6.75px; font-family:Arial;" text-anchor="middle"><textPath startOffset="22.20632615414155" xlink:href="#id46">October</textPath></text><path d="M 80.38941819471856 92.48833698450439 l -13.749670016980394 -5.266691665109341 a35.723840078973346,35.723840078973346 0 0,0 0.2249010514969159,-0.5723486449292948 l 13.656975415601787 5.502589314934399" fill="#ff0000" stroke="none" /><line stroke="#e1ed5e" stroke-width="0.3" x1="26.266209847984243" x2="21.928928074336255" y1="57.711370442889674" y2="55.22380399835377" /><path d="M 25.398753493254645 57.213857153982495 a86.0,86.0 0 0,1 29.58750427330803,-30.492523968695096" fill="none" id="id47" stroke="none" /><text fill="#e1ed5e" style="font-size:6.75px; font-family:Arial;" text-anchor="middle"><textPath startOffset="21.46611528233685" xlink:href="#id47">November</textPath></text><line stroke="#e1ed5e" stroke-width="0.3" x1="56.762969772571076" x2="54.21961505331055" y1="26.818313649435495" y2="22.513508569990535" /><path d="M 56.25429882871897 25.957352633546506 a86.0,86.0 0 0,1 42.265352541879196,-11.944610805530505" fill="none" id="id48" stroke="none" /><text fill="#e1ed5e" style="font-size:6.75px; font-family:Arial;" text-anchor="middle"><textPath startOffset="22.20632615414155" xlink:href="#id48">December</textPath></text></svg>